<?xml version="1.0" encoding="UTF-8"?>
<svg id="svg8" width="1024" height="1024" version="1.1" viewBox="0 0 270.93 270.93" xmlns="http://www.w3.org/2000/svg"><g id="layer1" transform="translate(0 -26.067)"><g id="g826" transform="matrix(2.9694 0 0 2.941 -132.77 -231.67)" stroke-width=".26458"><path id="path840" d="m108.01 179.16c-0.5723-0.47634-2.2887-4.6395-8.6651-21.017-4.3733-11.233-7.9514-20.736-7.9514-21.118 0-1.0228 0.41504-1.6264 1.3401-1.9489 0.75816-0.26429 2.4383 0.3448 21.605 7.8323 11.431 4.4654 20.945 8.2811 21.144 8.4793 0.60188 0.60187 0.72532 1.6432 0.30042 2.5342-0.35405 0.74237-1.17 1.1849-7.5763 4.1084-3.9487 1.802-7.1795 3.3471-7.1795 3.4335 0 0.0864 3.3257 3.4936 7.3905 7.5715 7.7377 7.7627 8.1473 8.2969 7.3925 9.6415-0.55097 0.98163-1.5631 1.2631-2.653 0.73792-0.48687-0.23461-4.0991-3.6469-8.0271-7.5828-3.928-3.9359-7.2131-7.1562-7.3001-7.1562-0.087 0-1.6346 3.2265-3.4392 7.17-2.6724 5.84-3.414 7.2388-3.9977 7.5406-0.99739 0.51577-1.555 0.46288-2.3827-0.226zm4.6782-13.426c1.5166-3.3556 2.8585-5.9604 3.272-6.3515 0.38555-0.36463 3.415-1.9012 6.7321-3.4145 3.3171-1.5134 5.9365-2.837 5.8208-2.9415-0.3037-0.27437-30.854-12.167-30.967-12.054-0.09466 0.0947 11.403 29.747 11.901 30.691 0.32849 0.6235 0.0439 1.1441 3.2408-5.9293zm-67.477-11.548c-0.63709-0.68743-0.64882-0.78348-0.64882-5.3091 0-5.5357 0.19953-6.1486 2.0044-6.1576 0.50885-3e-3 1.0261 0.22197 1.3805 0.59915 0.50664 0.53929 0.5746 0.95277 0.64143 3.9026l0.07476 3.2994 3.3469 0.13229c3.8928 0.15387 4.4583 0.42511 4.4583 2.1385 0 0.76315-0.16412 1.1272-0.69714 1.5465-0.64466 0.50709-1.044 0.54837-5.3043 0.54837h-4.6072zm16.793-0.0733c-0.42537-0.42536-0.7734-1.0298-0.7734-1.3433s0.34803-0.9179 0.7734-1.3433c0.75293-0.75294 0.84426-0.7734 3.4516-0.7734 2.4908 0 2.7237 0.0455 3.3276 0.64943 0.85919 0.85919 0.85919 2.0753 0 2.9345-0.60398 0.60398-0.83689 0.64943-3.3276 0.64943-2.6074 0-2.6987-0.0205-3.4516-0.7734zm12.7 0c-0.8391-0.83909-0.94143-1.3271-0.4656-2.2206 0.57124-1.0725 1.0421-1.2222 3.872-1.231 2.6115-8e-3 2.7515 0.0206 3.3734 0.69168 0.71376 0.77016 0.80951 1.4142 0.34102 2.2939-0.56672 1.064-1.0482 1.2222-3.7474 1.231-2.5259 8e-3 -2.6221-0.0136-3.3734-0.76499zm13.07 0.45888c-0.71346-0.34492-1.2511-1.575-1.0144-2.3208 0.42026-1.3241 1.1056-1.598 3.9985-1.598 2.6954 0 2.7071 3e-3 3.3897 0.81405 0.88602 1.053 0.86463 1.6928-0.08842 2.6459-0.74758 0.74759-0.85576 0.7728-3.2411 0.7555-1.3573-0.01-2.7272-0.14333-3.0442-0.29662zm-42.563-17.319c-0.59308-0.63995-0.64882-0.91386-0.64882-3.1881 0-3.4911 0.67671-4.6189 2.4972-4.162 1.2096 0.30359 1.4715 1.0192 1.4715 4.0201 0 2.5471-0.04379 2.7751-0.64943 3.3807-0.85068 0.85067-1.8528 0.83166-2.6705-0.0507zm62.971 0.0507c-0.60262-0.60262-0.64944-0.83948-0.64944-3.2856 0-3.0766 0.0798-3.3641 1.0773-3.8799 1.0756-0.55619 1.5107-0.48564 2.3827 0.38631 0.74061 0.74061 0.7734 0.87469 0.7734 3.1626 0 2.6513-0.27444 3.536-1.2322 3.9724-0.99242 0.45218-1.6421 0.35392-2.3516-0.35567zm-63.073-12.819c-0.45728-0.64219-0.54718-1.166-0.54718-3.1881 0-2.7335 0.3853-3.821 1.4483-4.0878 0.7737-0.19419 2.1077 0.39735 2.3561 1.0448 0.09039 0.23556 0.16435 1.6146 0.16435 3.0645 0 2.4462-0.04682 2.683-0.64943 3.2856-0.9181 0.9181-2.0688 0.8687-2.7721-0.11902zm63.073 0.11902c-0.60671-0.60671-0.64944-0.83143-0.64944-3.4161 0-2.7646 5.3e-4 -2.7672 0.81406-3.4516 1.053-0.88601 1.6928-0.86463 2.6459 0.0884 0.75097 0.75096 0.7734 0.84959 0.7734 3.4009 0 2.4224-0.0507 2.6822-0.64883 3.3276-0.84723 0.91418-2.0508 0.93495-2.9351 0.0507zm-63.073-12.819c-0.45728-0.64219-0.54718-1.166-0.54718-3.1881 0-2.5902 0.42581-3.9458 1.2636-4.0228 0.96363-0.0885 1.5164 0.0757 2.1001 0.62408 0.55491 0.52131 0.60505 0.7958 0.60505 3.3124 0 2.5606-0.0434 2.7874-0.64943 3.3935-0.9181 0.9181-2.0688 0.8687-2.7721-0.11902zm63.073 0.11902c-0.60284-0.60284-0.64944-0.83906-0.64944-3.2925 0-2.3902 0.0593-2.712 0.61959-3.3634 0.85015-0.98837 2.144-0.98837 2.9942 0 0.56031 0.65139 0.61959 0.97319 0.61959 3.3634 0 2.4535-0.0466 2.6897-0.64944 3.2925-0.40937 0.40937-0.95172 0.64943-1.4672 0.64943s-1.0579-0.24006-1.4672-0.64943zm-62.367-12.237c-1.0208-0.25958-1.2532-1.4025-1.2532-6.1628 0-4.4495 0.01056-4.5336 0.64943-5.1725 0.63892-0.63892 0.72274-0.64943 5.1768-0.64943 5.447 0 6.067 0.20455 6.076 2.0044 0.0025 0.50885-0.22197 1.0261-0.59915 1.3805-0.53929 0.50664-0.95277 0.5746-3.9026 0.64143l-3.2994 0.07476-0.07376 3.3345c-0.06763 3.0571-0.12264 3.3792-0.66146 3.8722-0.66439 0.60789-1.4254 0.85177-2.1126 0.67702zm63.164-0.06811c-1.1282-0.45214-1.3083-1.0102-1.446-4.4814l-0.13229-3.3342-3.2994-0.07476c-2.9498-0.06684-3.3633-0.1348-3.9026-0.64143-0.37717-0.35434-0.60168-0.8716-0.59914-1.3805 0.0089-1.7915 0.6403-2.0044 5.9448-2.0044 4.5662 0 5.6811 0.22131 6.0576 1.2025 0.0904 0.23556 0.16436 2.436 0.16436 4.8898 0 4.2564-0.0274 4.4916-0.59532 5.1164-0.69856 0.76841-1.442 1.0085-2.192 0.70796zm-46.629-8.1249c-0.57208-0.23017-1.1426-1.621-0.96123-2.3434 0.26679-1.063 1.3543-1.4483 4.0878-1.4483 2.0221 0 2.5459 0.0899 3.1881 0.54718 0.98772 0.70332 1.0371 1.854 0.11902 2.7721-0.60874 0.60874-0.82012 0.64812-3.3734 0.62854-1.4982-0.01149-2.8753-0.08178-3.0603-0.1562zm12.231-0.47235c-1.0189-1.0189-0.83503-2.2792 0.42782-2.9322 1.0158-0.52529 5.0318-0.52529 6.0476 0 1.2629 0.65305 1.4467 1.9133 0.42782 2.9322-0.60776 0.60776-0.82923 0.64943-3.4516 0.64943-2.6224 0-2.8438-0.04167-3.4516-0.64943zm12.7 0c-1.0189-1.0189-0.83503-2.2792 0.42782-2.9322 0.48671-0.25169 1.5444-0.38709 3.0238-0.38709 3.2639 0 4.3963 0.716 3.9492 2.4972-0.30358 1.2096-1.0192 1.4715-4.0201 1.4715-2.5471 0-2.7751-0.04379-3.3807-0.64943z" fill="#a1a1a1"/><path id="path838" d="m108.24 179.18c-0.52388-0.46822-2.5813-5.4786-8.6362-21.032-4.3717-11.229-7.9485-20.775-7.9485-21.214 0-0.75457 0.98377-1.8933 1.6357-1.8933 0.13275 0 9.5524 3.6332 20.933 8.0739 21.964 8.5706 22.121 8.6438 21.751 10.153-0.093 0.37971-0.31004 0.83107-0.48236 1.003-0.17232 0.17196-3.4644 1.7514-7.3156 3.5098s-7.1212 3.316-7.2664 3.4612c-0.1757 0.17571 2.2722 2.8083 7.3153 7.8673 4.9427 4.9583 7.6417 7.857 7.7586 8.3327 0.36413 1.4822-1.3746 2.7849-2.6191 1.9624-0.31202-0.20621-3.937-3.682-8.0556-7.7241-4.4078-4.3259-7.5854-7.2514-7.7244-7.1116-0.12987 0.13064-1.6802 3.3927-3.4452 7.249-1.765 3.8563-3.3492 7.1524-3.5204 7.3248-0.65876 0.66307-1.6616 0.67856-2.3797 0.0368zm4.5852-13.14c1.5437-3.3771 2.9826-6.316 3.1975-6.531 0.21493-0.21493 3.1746-1.6706 6.5771-3.2347 3.4025-1.5642 6.2284-2.9708 6.2798-3.1259 0.0763-0.23013-30.82-12.55-31.474-12.55-0.10698 0-0.19452 0.11949-0.19452 0.26553s2.6126 6.9624 5.8058 15.147c3.1932 8.185 5.9324 15.219 6.087 15.631 0.15469 0.41201 0.42365 0.70165 0.59767 0.64364 0.17402-0.058 1.5794-2.8686 3.1231-6.2457zm-67.616-12.068c-0.63832-0.63832-0.64943-0.72602-0.64943-5.1237 0-4.1259 0.0427-4.5285 0.54837-5.1714 0.67092-0.85293 1.8653-0.92931 2.6266-0.16797 0.46737 0.46737 0.52917 0.88194 0.52917 3.5502 0 1.6616 0.07227 3.2094 0.1606 3.4396 0.13438 0.35019 0.69107 0.41851 3.4103 0.41851 2.7639 0 3.3397 0.0729 3.8522 0.48794 0.81924 0.66338 0.81924 2.0649 0 2.7283-0.53411 0.4325-1.1267 0.48794-5.2155 0.48794-4.5449 0-4.6225-0.01-5.2624-0.64943zm16.933 0c-0.35719-0.35719-0.64943-0.89838-0.64943-1.2026s0.29224-0.84547 0.64943-1.2026c0.6018-0.6018 0.84099-0.64944 3.2612-0.64944 2.3879 0 2.661 0.0525 3.187 0.61237 0.74634 0.79444 0.7316 1.7944-0.03708 2.5165-0.54212 0.5093-0.90771 0.57529-3.187 0.57529-2.3808 0-2.6236-0.0489-3.2241-0.64943zm12.7 0c-0.79339-0.79339-0.8212-1.4421-0.10106-2.3576 0.52871-0.67214 0.64563-0.69714 3.2612-0.69714 2.4936 0 2.7593 0.0495 3.2881 0.61237 0.74634 0.79444 0.7316 1.7944-0.03708 2.5165-0.54212 0.5093-0.90771 0.57529-3.187 0.57529-2.3808 0-2.6236-0.0489-3.2241-0.64943zm12.599-0.0477c-0.3016-0.38343-0.54837-0.90315-0.54837-1.1549 0-0.2518 0.24677-0.77152 0.54837-1.155 0.52934-0.67294 0.64346-0.69714 3.2881-0.69714s2.7588 0.0242 3.2881 0.69714c0.72014 0.9155 0.69233 1.5642-0.10106 2.3576-0.60269 0.60269-0.83933 0.64943-3.2881 0.64943-2.5354 0-2.6601-0.0273-3.187-0.69714zm-42.232-16.886c-0.59924-0.59923-0.64943-0.84556-0.64943-3.187s0.0502-2.5878 0.64943-3.187c0.81515-0.81515 1.7356-0.82891 2.4794-0.0371 0.51293 0.54599 0.57529 0.9045 0.57529 3.3073 0 2.3422-0.06927 2.7642-0.52917 3.2241-0.7151 0.7151-1.739 0.66634-2.5256-0.12027zm63.161 0.0371c-0.51236-0.54539-0.57528-0.90501-0.57528-3.2881 0-2.5755 0.0261-2.6963 0.69714-3.2241 0.9155-0.72013 1.5642-0.69233 2.3576 0.10106 0.59924 0.59924 0.64943 0.84557 0.64943 3.187s-0.0502 2.5878-0.64943 3.187c-0.81515 0.81515-1.7356 0.82891-2.4794 0.0371zm-63.262-12.785c-0.46654-0.59311-0.54837-1.0687-0.54837-3.187 0-2.2908 0.05193-2.5418 0.64943-3.1393 0.79339-0.79339 1.4421-0.82119 2.3576-0.10106 0.6735 0.52978 0.69714 0.64192 0.69714 3.3073 0 2.4062-0.06766 2.8266-0.52917 3.2881-0.76134 0.76134-1.9557 0.68496-2.6266-0.16797zm63.262 0.0848c-0.51236-0.54539-0.57528-0.90501-0.57528-3.2881 0-2.5755 0.0261-2.6963 0.69714-3.2241 0.9155-0.72013 1.5642-0.69233 2.3576 0.10106 0.6018 0.6018 0.64943 0.84099 0.64943 3.2612 0 2.3879-0.0525 2.661-0.61236 3.187-0.79444 0.74634-1.7944 0.73161-2.5165-0.0371zm-63.285-12.814c-0.51319-0.65241-0.56212-0.98709-0.48222-3.2984 0.0997-2.8842 0.40324-3.4721 1.7927-3.4721 1.5526 0 1.8681 0.62502 1.8681 3.7011 0 2.3843-0.0682 2.8053-0.52917 3.2663-0.77287 0.77287-1.9557 0.68495-2.6494-0.19693zm63.239 0.19693c-0.45782-0.45782-0.52916-0.88194-0.52916-3.1457 0-3.0702 0.36416-3.8217 1.8521-3.8217 1.4816 0 1.8521 0.75522 1.8521 3.7756 0 2.3447-0.0538 2.6209-0.61236 3.1457-0.76523 0.71889-1.87 0.73878-2.5626 0.0461zm-62.61-12.483c-0.98234-0.47116-1.1547-1.35-1.1547-5.8888 0-5.8967-0.3354-5.5474 5.4335-5.6575 4.9043-0.09357 5.8301 0.09393 6.1341 1.2424 0.23218 0.87687 0.1349 1.3664-0.3877 1.9509-0.35124 0.39283-0.90112 0.46302-3.6274 0.46302-2.1465 0-3.3188 0.10541-3.5309 0.3175-0.21209 0.21209-0.3175 1.3844-0.3175 3.5309 0 2.7291-0.06978 3.2746-0.46302 3.62-0.65979 0.57938-1.4322 0.7355-2.0865 0.42172zm63.223 0.04315c-0.94293-0.37589-1.1418-1.1232-1.1418-4.291 0-1.9861-0.1078-3.115-0.3175-3.3247-0.21209-0.21209-1.3844-0.3175-3.5309-0.3175-2.777 0-3.2728-0.0657-3.6512-0.48386-0.68271-0.75438-0.55911-2.0282 0.25926-2.6719 0.64285-0.50567 1.0455-0.54837 5.1714-0.54837 4.3977 0 4.4854 0.01112 5.1237 0.64943 0.63986 0.63985 0.64943 0.71746 0.64943 5.2624 0 4.0129-0.0602 4.6826-0.46302 5.1484-0.57606 0.66623-1.3454 0.87773-2.0994 0.57716zm-46.895-8.6303c-0.68148-0.86636-0.69257-1.4473-0.04297-2.2501 0.45841-0.56655 0.74759-0.63289 3.1104-0.71354 2.3446-0.08003 2.6775-0.03183 3.3311 0.48222 0.88188 0.69368 0.96979 1.8765 0.19692 2.6494-0.4615 0.4615-0.88194 0.52917-3.2881 0.52917-2.6654 0-2.7775-0.02364-3.3073-0.69714zm12.691 0.11808c-0.67556-0.72513-0.68758-1.5605-0.03408-2.3682 0.45968-0.56812 0.74577-0.63282 3.1626-0.71518 2.5521-0.08697 2.6839-0.06389 3.3311 0.58329 0.80901 0.80901 0.86681 1.8278 0.14467 2.55-0.46172 0.46172-0.88194 0.52917-3.297 0.52917-2.5066 0-2.8187-0.05465-3.3073-0.57906zm12.69 0.04989c-0.72214-0.72214-0.66434-1.741 0.14467-2.55 0.64718-0.64718 0.77898-0.67026 3.3311-0.58329 2.4168 0.08236 2.7029 0.14706 3.1626 0.71518 0.65351 0.80767 0.64149 1.6431-0.03408 2.3682-0.48856 0.5244-0.8007 0.57906-3.3073 0.57906-2.415 0-2.8353-0.06745-3.297-0.52917z" fill="#838383"/><path id="path836" d="m108.4 179.35c-0.61376-0.42989-0.73421-0.72602-10.763-26.461-3.2902-8.4432-5.9822-15.59-5.9822-15.882 0-0.90315 0.7508-1.7072 1.5942-1.7072 0.67018 0 39.61 15.013 41.574 16.028 0.93945 0.48581 1.3414 1.2385 1.124 2.1048-0.18587 0.74056-1.3704 1.3604-10.624 5.5594-3.0904 1.4024-4.5641 2.2052-4.5641 2.4864 0 0.22838 3.3412 3.7482 7.4249 7.8218 4.0837 4.0736 7.5394 7.6125 7.6793 7.8642 0.13992 0.25167 0.18441 0.7365 0.0988 1.0774-0.15395 0.6134-1.3405 1.5077-2.0004 1.5077-0.18794 0-3.8906-3.5359-8.228-7.8575-4.8986-4.8806-7.979-7.7625-8.1308-7.6068-0.13444 0.13789-1.682 3.4059-3.439 7.2622-3.6647 8.0433-4.2633 8.8535-5.7642 7.8023zm4.4788-13.24c1.5874-3.4851 3.0276-6.4733 3.2005-6.6406 0.17288-0.16725 2.9932-1.5196 6.2674-3.0052 7.5117-3.4083 7.027-3.1466 6.5793-3.5524-0.51565-0.46739-31.153-12.368-31.587-12.27-0.34224 0.0775 0.75772 3.0027 10.358 27.545 0.95628 2.4447 1.864 4.4031 2.017 4.3521 0.15311-0.051 1.5772-2.9442 3.1646-6.4292zm-67.67-12.145c-0.63886-0.63886-0.64943-0.72308-0.64943-5.1714 0-4.4483 0.01058-4.5326 0.64943-5.1714 0.78898-0.78898 1.8403-0.83729 2.462-0.11312 0.36706 0.42755 0.48726 1.219 0.59272 3.9026l0.13229 3.3663 3.3663 0.13229c2.6836 0.10547 3.475 0.22567 3.9026 0.59272 0.77661 0.66673 0.70011 1.8859-0.16083 2.5631-0.64285 0.50567-1.0455 0.54837-5.1714 0.54837-4.3977 0-4.4854-0.0111-5.1237-0.64943zm17.403 0.47235c-0.18496-0.0744-0.51544-0.48174-0.7344-0.90516-0.35298-0.68259-0.35346-0.85618-0.0042-1.5315 0.51712-0.99999 0.81743-1.0904 3.6221-1.0904 2.1653 0 2.4282 0.0565 3.0211 0.64944 0.82408 0.82407 0.82408 1.5812 0 2.4053-0.60012 0.60012-0.83617 0.64784-3.1089 0.62854-1.3527-0.0115-2.6108-0.0818-2.7957-0.15619zm12.36-0.31086c-0.81924-0.66338-0.81924-2.0649 0-2.7283 0.49044-0.39714 1.0671-0.48794 3.0988-0.48794 2.2976 0 2.5479 0.0517 3.1457 0.64944 0.82408 0.82407 0.82408 1.5812 0 2.4053-0.59774 0.59774-0.84812 0.64943-3.1457 0.64943-2.0317 0-2.6084-0.0908-3.0988-0.48794zm12.57-0.16149c-0.35719-0.35719-0.64943-0.89838-0.64943-1.2026s0.29224-0.84547 0.64943-1.2026c0.59774-0.59775 0.84812-0.64944 3.1457-0.64944 2.9402 0 3.7014 0.38092 3.7014 1.8521s-0.76126 1.8521-3.7014 1.8521c-2.2976 0-2.5479-0.0517-3.1457-0.64943zm-41.841-16.55c-0.31791-0.12809-0.70486-0.46991-0.8599-0.75959-0.345-0.64464-0.3734-4.5197-0.03956-5.3977 0.32184-0.8465 1.6305-1.3983 2.3734-1.0007 0.89148 0.47711 1.0884 1.1675 1.0884 3.816 0 2.3983-0.03148 2.5365-0.69714 3.0601-0.75952 0.59743-0.99417 0.6329-1.8653 0.28194zm62.743-0.38301c-0.59774-0.59774-0.64943-0.84812-0.64943-3.1457 0-2.9217 0.38412-3.7014 1.8234-3.7014 1.4426 0 1.7368 0.56386 1.839 3.5243 0.0868 2.5172 0.063 2.6521-0.58329 3.2984-0.8476 0.8476-1.599 0.85515-2.4297 0.0244zm-63.235-12.7c-0.58589-0.58588-0.64908-0.86418-0.64582-2.8443 0.0046-2.8094 0.13852-3.2601 1.108-3.7296 1.8667-0.90409 2.5926 0.0923 2.5926 3.5588 0 2.4588-0.02957 2.591-0.69714 3.1161-0.9155 0.72013-1.5642 0.69232-2.3576-0.10107zm63.235 0c-0.59664-0.59664-0.64943-0.84994-0.64943-3.1161 0-2.911 0.33664-3.6451 1.6686-3.6387 1.6252 8e-3 2.0355 0.77929 2.0355 3.827 0 2.0662-0.0605 2.3388-0.64943 2.9278-0.35719 0.35719-0.89838 0.64944-1.2026 0.64944s-0.84546-0.29225-1.2026-0.64944zm-63.235-12.7c-0.59234-0.59235-0.64943-0.85668-0.64943-3.007 0-2.7564 0.49648-3.7519 1.8713-3.7519 1.467 0 1.8329 0.73032 1.8329 3.658 0 2.3754-0.05285 2.6494-0.61237 3.175-0.80226 0.75368-1.64 0.72825-2.4424-0.0741zm63.235 0c-0.59881-0.59881-0.64943-0.84631-0.64943-3.175 0-2.8261 0.37995-3.5877 1.7859-3.5798 1.4977 8e-3 1.9182 0.84741 1.9182 3.827 0 2.0662-0.0605 2.3388-0.64943 2.9278-0.35719 0.35718-0.89838 0.64943-1.2026 0.64943s-0.84546-0.29225-1.2026-0.64943zm-63.353-13.033c-0.53492-0.68004-0.5604-0.9572-0.48222-5.2451 0.10821-5.9351-0.30626-5.5206 5.6288-5.6288 4.2879-0.07818 4.5651-0.05269 5.2451 0.48222 0.80636 0.63429 0.95038 1.6942 0.34326 2.5263-0.32904 0.45097-0.80485 0.52972-3.9026 0.64588l-3.5279 0.13229-0.13229 3.5279c-0.11616 3.0978-0.19491 3.5736-0.64588 3.9026-0.83211 0.60712-1.892 0.46311-2.5263-0.34326zm63.349 0.34326c-0.45097-0.32904-0.52972-0.80485-0.64588-3.9026l-0.13229-3.5279-3.5279-0.13229c-3.0978-0.11616-3.5736-0.19491-3.9026-0.64588-0.55884-0.76594-0.45466-1.6795 0.27471-2.4089 0.63505-0.63505 0.74197-0.64935 4.8286-0.64582 2.2986 2e-3 4.4519 0.07665 4.7851 0.16592 1.1446 0.30661 1.3785 1.302 1.3785 5.8671 0 3.8593-0.0458 4.269-0.54837 4.9079-0.6179 0.78553-1.687 0.92286-2.5099 0.32242zm-46.062-7.9516c-0.75792-0.53087-0.89652-1.2529-0.42672-2.2229 0.47767-0.98629 1.3113-1.1946 4.1978-1.0488 1.7243 0.08707 2.0876 0.19102 2.5158 0.7198 0.6447 0.79618 0.63226 1.3788-0.04792 2.2435-0.52511 0.66757-0.65728 0.69714-3.1161 0.69714-1.8305 0-2.7271-0.11163-3.1228-0.38878zm12.37-0.29967c-0.65972-0.8387-0.67085-0.96628-0.16893-1.9369 0.46574-0.90065 1.0185-1.0705 3.4991-1.0752 2.3756-0.0045 3.0841 0.25992 3.5207 1.3139 0.30677 0.7406 0.28628 0.91159-0.18494 1.5436-0.5091 0.68283-0.63954 0.71369-3.3203 0.78559-2.7473 0.07368-2.799 0.06393-3.3456-0.63099zm12.7 0c-0.65972-0.8387-0.67085-0.96628-0.16893-1.9369 0.46574-0.90065 1.0185-1.0705 3.4991-1.0752 2.3756-0.0045 3.0841 0.25992 3.5207 1.3139 0.30677 0.7406 0.28628 0.91159-0.18494 1.5436-0.5091 0.68283-0.63954 0.71369-3.3203 0.78559-2.7473 0.07368-2.799 0.06393-3.3456-0.63099z" fill="#7b7b7b"/><path id="path834" d="m108.7 179.49c-0.30462-0.12317-0.74217-0.62164-0.97236-1.1077-0.96731-2.0427-16.069-41.069-16.069-41.526 0-0.87068 1.0087-1.6366 1.948-1.479 1.1454 0.19213 41.49 15.988 41.872 16.394 0.64919 0.68906 0.66491 1.4487 0.0441 2.1337-0.36012 0.39739-3.3609 1.921-7.4153 3.7652-3.7457 1.7037-7.0199 3.2539-7.276 3.4448-0.42031 0.31337 0.3005 1.1157 7.4057 8.2433 4.4411 4.4552 7.8714 8.1024 7.8714 8.3694 0 0.26025-0.35632 0.82952-0.79183 1.265-0.59871 0.59871-0.9375 0.74882-1.3891 0.61548-0.32848-0.097-4.0856-3.6474-8.3491-7.8898-7.0054-6.9707-7.7855-7.6686-8.1009-7.2478-0.19195 0.2561-1.7429 3.5303-3.4466 7.276-2.7587 6.0652-3.8994 8.0477-4.594 7.9843-0.10103-9e-3 -0.43291-0.11754-0.73752-0.24071zm4.1755-13.235c1.5561-3.3951 3.0447-6.3865 3.308-6.6476 0.26327-0.26106 3.2008-1.7196 6.5279-3.2412 5.8955-2.6962 6.7768-3.1714 6.4636-3.4846-0.40475-0.40475-31.851-12.507-32.031-12.327-0.16196 0.16196 4.439 12.227 12.003 31.476 0.13331 0.33925 0.39016 0.56756 0.57077 0.50736s1.6016-2.8873 3.1577-6.2824zm-67.181-12.066c-1.0998-0.55429-1.1928-1.0803-1.0846-6.1312 0.09285-4.3308 0.18486-4.6172 1.594-4.9626 0.55583-0.13621 0.86398-0.0253 1.3891 0.49973 0.65114 0.65114 0.67477 0.79031 0.67477 3.9731v3.2983l3.4127 0.0872c2.9081 0.0743 3.4949 0.16169 3.9688 0.5912 0.69172 0.62696 0.71084 1.495 0.05088 2.3109-0.48897 0.60455-0.64419 0.62686-4.8286 0.69411-3.5641 0.0573-4.4733-6e-3 -5.177-0.36069zm17.39 0.23579c-1.4448-0.53123-1.769-2.0689-0.62578-2.9681 0.56994-0.44832 1.0737-0.54837 2.7609-0.54837 2.4322 0 3.342 0.28671 3.6731 1.1575 0.63847 1.6793-0.57116 2.5572-3.48 2.5258-1.0623-0.0115-2.11-0.0866-2.3282-0.16682zm12.7 0c-0.77817-0.28612-1.3229-0.96313-1.3189-1.6392 0.0049-0.83466 0.21515-1.1753 0.97074-1.573 0.75341-0.39656 4.3625-0.3926 5.2368 6e-3 1.3262 0.60423 1.2195 2.6209-0.16407 3.1032-0.85314 0.2974-4.0091 0.36642-4.7246 0.10331zm12.369-0.10716c-1.2818-0.49071-1.3208-2.5246-0.0595-3.0994 0.87428-0.39836 4.4834-0.40232 5.2368-6e-3 0.75559 0.39772 0.96582 0.73837 0.97074 1.573 0.0072 1.2278-0.84938 1.6876-3.2647 1.7528-1.1854 0.0319-2.4829-0.0674-2.8834-0.22067zm-42.928-17.32c-0.46969-0.35491-0.52917-0.70952-0.52917-3.1552 0-2.4457 0.05947-2.8003 0.52917-3.1552 0.74429-0.5624 1.8899-0.51113 2.5135 0.11249 0.45312 0.45312 0.52917 0.88194 0.52917 2.9838 0 2.9008-0.33848 3.6356-1.6686 3.6223-0.46469-5e-3 -1.083-0.18835-1.3741-0.40827zm63.223 0.0434c-0.41474-0.30326-0.52882-0.7754-0.60785-2.5158-0.10875-2.3946 0.0305-3.23 0.63969-3.8392 0.58271-0.58271 1.7909-0.51721 2.3755 0.12877 0.89292 0.98666 0.86317 5.2882-0.0429 6.1942-0.50754 0.50754-1.6923 0.5236-2.3645 0.032zm-62.875-12.519c-0.87376-0.53938-1.0016-0.98957-1.0062-3.5426-0.0042-2.3536 0.55841-3.4091 1.8171-3.4091 1.4729 0 1.7423 0.49199 1.8403 3.3602 0.07628 2.2333 0.01902 2.6912-0.39688 3.1737-0.68173 0.79096-1.4263 0.92895-2.2543 0.4178zm63.346 0.1824c-0.83379-0.33498-1.1206-1.2759-1.1206-3.676 0-2.4126 0.55334-3.458 1.8303-3.458 1.216 0 1.7202 0.83788 1.8316 3.044 0.1193 2.3625-0.28899 3.773-1.1915 4.1161-0.35901 0.1365-0.67476 0.24063-0.70167 0.2314-0.0269-9e-3 -0.31854-0.12508-0.64808-0.25747zm-63.284-12.803c-0.88037-0.48755-1.0316-0.98856-1.0533-3.4894-0.0218-2.5175 0.50831-3.5414 1.8335-3.5414 1.3536 0 1.8521 1.0098 1.8521 3.7519 0 2.1504-0.05709 2.4147-0.64943 3.007-0.73629 0.73629-1.0633 0.78112-1.9829 0.27185zm63.284 0.10333c-0.83379-0.33498-1.1206-1.2759-1.1206-3.676 0-2.4126 0.55334-3.458 1.8303-3.458 1.216 0 1.7202 0.83788 1.8316 3.044 0.1193 2.3625-0.28899 3.773-1.1915 4.1161-0.35901 0.1365-0.67476 0.24063-0.70167 0.23141-0.0269-9e-3 -0.31854-0.12509-0.64808-0.25748zm-63.707-13.34c-0.63743-0.63743-0.64943-0.73073-0.64943-5.0474v-4.398l1.5817-1.5817 4.5248 0.0836c4.388 0.08108 4.54 0.10248 5.03 0.70823 0.65984 0.81578 0.64089 1.6838-0.05045 2.3109-0.46516 0.42193-1.1008 0.52558-3.9026 0.63632l-3.3469 0.13229-0.13229 3.3469c-0.11074 2.8018-0.21439 3.4374-0.63632 3.9026-0.67062 0.73934-1.6222 0.70245-2.4184-0.09375zm63.222 0.09375c-0.42193-0.46516-0.52558-1.1008-0.63632-3.9026l-0.13229-3.3469-3.3977-0.13229c-3.1717-0.12349-3.4313-0.17384-3.9026-0.75692-0.63901-0.79057-0.63893-1.4 2.6e-4 -2.1903 0.48479-0.5994 0.66852-0.6281 4.5491-0.71062 5.1729-0.11001 5.6173-0.02641 6.1817 1.1631 0.36781 0.77509 0.42767 1.6332 0.35758 5.1255-0.0739 3.682-0.14578 4.2625-0.58822 4.7506-0.64558 0.71233-1.7856 0.71254-2.4315 4.5e-4zm-46.145-7.911c-0.76134-0.76134-0.68496-1.9557 0.16797-2.6266 0.56788-0.4467 1.0707-0.5477 2.712-0.54476 2.5782 0.0046 3.0164 0.13412 3.5583 1.0514 0.51985 0.88003 0.26368 1.913-0.58736 2.3685-0.28844 0.15437-1.6038 0.28067-2.9231 0.28067-2.0459 0-2.4765-0.07783-2.9278-0.52917zm12.759 0.11729c-0.69682-0.48807-0.78361-1.8206-0.17136-2.6308 0.35491-0.46969 0.70952-0.52917 3.1552-0.52917 2.4457 0 2.8003 0.05947 3.1552 0.52917 0.61225 0.81027 0.52546 2.1428-0.17136 2.6308-0.82816 0.58007-5.1395 0.58007-5.9677 0zm12.7 0c-0.69668-0.48797-0.78363-1.8203-0.17169-2.6308 0.3385-0.44835 0.77172-0.54283 2.8367-0.61863 2.1747-0.07983 2.5154-0.0279 3.1639 0.48222 0.88256 0.69422 0.97075 1.8768 0.19761 2.6499-0.45312 0.45312-0.88194 0.52917-2.9838 0.52917-1.7934 0-2.6131-0.11095-3.0427-0.41188z" fill="#5e5e5e"/><path id="path832" d="m108.12 178.94c-0.32645-0.52273-15.774-39.911-16.183-41.264-0.26828-0.88713 0.0978-1.7894 0.86849-2.1406 0.54533-0.24847 3.354 0.7771 21.108 7.7074 11.264 4.3967 20.807 8.1838 21.207 8.4156 0.55146 0.31949 0.7276 0.62405 0.7276 1.2581 0 0.46013-0.14983 0.96094-0.33295 1.1129-0.18313 0.15198-3.368 1.6666-7.0776 3.3658-3.7096 1.6992-7.0125 3.2159-7.34 3.3704-0.32742 0.15451-0.59531 0.47291-0.59531 0.70756 0 0.23466 3.4643 3.8767 7.6985 8.0935 8.08 8.0467 8.303 8.3395 7.1623 9.4023-1.1615 1.0821-1.3928 0.90673-9.4414-7.1594-4.2109-4.2201-7.8509-7.6729-8.089-7.6729-0.30925 0-1.3896 2.0847-3.7847 7.3032-1.8436 4.0168-3.5183 7.4696-3.7216 7.6729-0.55932 0.55933-1.8105 0.46126-2.2066-0.17295zm4.8543-12.644c1.6108-3.5185 3.0478-6.5163 3.1933-6.6618 0.14553-0.14552 3.1082-1.5723 6.5838-3.1706 6.1943-2.8486 6.9968-3.2779 6.6937-3.5809-0.23406-0.23407-31.788-12.554-32.16-12.556-0.1819-1e-3 -0.33073 0.17057-0.33073 0.38192 0 0.32669 11.997 31.369 12.358 31.975 0.34673 0.58279 0.96484-0.49525 3.6623-6.3872zm-67.547-12.272c-0.58554-0.28239-0.59531-0.3674-0.59531-5.1784 0-5.3639 0.06425-5.5841 1.6347-5.6027 1.3275-0.0158 1.5403 0.51792 1.5403 3.8643 0 1.6727 0.12325 3.2715 0.27389 3.553 0.2472 0.4619 0.5803 0.51178 3.4179 0.51178 1.7292 0 3.3415 0.0758 3.5828 0.16837 0.98395 0.37758 1.0016 2.154 0.02791 2.8041-0.46447 0.31013-9.2105 0.20354-9.8823-0.12044zm16.867-0.20624c-0.29104-0.29104-0.52917-0.76729-0.52917-1.0583 0-0.29105 0.23812-0.7673 0.52917-1.0583 0.4575-0.4575 0.88194-0.52916 3.134-0.52916 2.8609 0 3.4806 0.29082 3.4806 1.6335 0 1.2345-0.70244 1.5415-3.5266 1.5415-2.2061 0-2.6318-0.073-3.088-0.52917zm12.7 0c-0.63569-0.63569-0.67164-1.2664-0.11729-2.0578 0.38024-0.54287 0.62098-0.58804 3.134-0.58804 2.9877 0 3.5979 0.27702 3.5979 1.6335 0 1.2345-0.70244 1.5415-3.5266 1.5415-2.2061 0-2.6318-0.073-3.088-0.52917zm12.583-0.0589c-0.54828-0.78278-0.52048-1.6129 0.07198-2.1491 0.3831-0.3467 1.0411-0.43788 3.16-0.43788 2.4655 0 2.7086 0.0463 3.088 0.58804 0.55435 0.79144 0.5184 1.4221-0.11729 2.0578-0.45821 0.45821-0.88194 0.52917-3.16 0.52917-2.4187 0-2.664-0.0474-3.0427-0.58804zm-42.15-16.668c-0.56284-0.27145-0.59531-0.44283-0.59531-3.1421 0-2.6503 0.04215-2.8845 0.58804-3.2669 0.78278-0.54828 1.6129-0.52048 2.1491 0.072 0.6709 0.74133 0.63496 5.6058-0.04597 6.222-0.54865 0.49653-1.2275 0.53376-2.0958 0.11496zm63.078-0.16093c-0.3467-0.3831-0.43788-1.0411-0.43788-3.16 0-2.4655 0.0463-2.7086 0.58804-3.088 0.79144-0.55435 1.4221-0.5184 2.0578 0.11729 0.45312 0.45312 0.52917 0.88194 0.52917 2.9838 0 1.7934-0.11095 2.6131-0.41188 3.0427-0.50853 0.72603-1.7136 0.78003-2.3252 0.10419zm-63.22-12.591c-0.41119-0.31191-0.46252-0.72885-0.39688-3.2232 0.07415-2.8175 0.08746-2.8717 0.80301-3.2714 0.65431-0.36546 0.80089-0.36547 1.4552-4e-5 0.7118 0.39753 0.72925 0.46583 0.80339 3.1435 0.06289 2.2714-3.71e-4 2.8213-0.37174 3.2317-0.52101 0.57571-1.6163 0.63275-2.293 0.11942zm63.22-0.10877c-0.3467-0.3831-0.43788-1.0411-0.43788-3.16 0-2.4655 0.0463-2.7086 0.58804-3.088 0.79144-0.55435 1.4221-0.5184 2.0578 0.11729 0.45751 0.4575 0.52917 0.88194 0.52917 3.134 0 2.1875-0.0775 2.675-0.48385 3.0427-0.63902 0.5783-1.708 0.55649-2.2533-0.046zm-63.21-12.584c-0.38917-0.29542-0.46302-0.79384-0.46302-3.1249v-2.7734l0.90113-0.48529c0.8521-0.45889 0.93848-0.46082 1.5875-0.0356 0.66598 0.43636 0.68637 0.5315 0.68637 3.2028 0 2.1501-0.09107 2.8442-0.41577 3.1689-0.50382 0.50382-1.6635 0.52779-2.2962 0.0475zm63.21-0.11554c-0.34391-0.38002-0.43788-1.033-0.43788-3.0427 0-2.2415 0.0685-2.6273 0.5521-3.111 0.40545-0.40545 0.73926-0.50702 1.2568-0.38239 1.1623 0.2799 1.3661 0.81557 1.3661 3.5899 0 2.1385-0.0788 2.6255-0.48385 2.9921-0.63902 0.5783-1.708 0.55649-2.2533-0.046zm-62.946-12.683-0.7276-0.44897v-4.7925c0-4.3069 0.04903-4.8369 0.48386-5.2304 0.41242-0.37323 1.1853-0.43788 5.2346-0.43788h4.7508l0.46859 0.79326c0.40496 0.68554 0.42132 0.89214 0.12049 1.5214l-0.3481 0.72809-3.5134 0.13229c-2.7303 0.1028-3.5692 0.22075-3.7636 0.52917-0.13757 0.21828-0.25196 1.8408-0.25418 3.6056-0.0028 2.2453-0.10336 3.2882-0.33478 3.4733-0.65456 0.52368-1.4008 0.56831-2.1167 0.1266zm63.566 0.28108c-0.90067-0.31589-1.0583-0.94464-1.0583-4.2206 0-2.9398-0.0485-3.2734-0.51177-3.5213-0.28148-0.15064-1.9245-0.27389-3.6512-0.27389-3.4415 0-3.7798-0.1295-3.7661-1.442 0.0175-1.6754 0.20032-1.733 5.4959-1.733 4.6442 0 4.7966 0.01724 5.1964 0.58804 0.54106 0.77246 0.61053 9.3769 0.0812 10.05-0.38691 0.4922-1.2216 0.75041-1.7859 0.55248zm-46.949-8.6039c-0.22653-0.32342-0.41188-0.77318-0.41188-0.99946s0.18534-0.67604 0.41188-0.99946c0.3815-0.54467 0.61837-0.58804 3.212-0.58804 3.0707 0 3.4944 0.19724 3.5115 1.6347 0.01544 1.3002-0.54051 1.5403-3.5674 1.5403-2.5359 0-2.7755-0.04465-3.1561-0.58804zm12.726 0.10418c-0.54882-0.60644-0.55794-1.3437-0.02601-2.1031 0.38067-0.54348 0.62011-0.58804 3.16-0.58804 2.5399 0 2.7793 0.04456 3.16 0.58804 0.54828 0.78278 0.52048 1.6129-0.07198 2.1491-0.74134 0.6709-5.6058 0.63496-6.222-0.04597zm12.7 0c-0.54882-0.60644-0.55794-1.3437-0.02601-2.1031 0.38067-0.54348 0.62011-0.58804 3.16-0.58804s2.7793 0.04456 3.16 0.58804c0.54828 0.78278 0.52048 1.6129-0.07198 2.1491-0.74134 0.6709-5.6058 0.63496-6.222-0.04597z" fill="#454545"/><path id="path830" d="m108.45 179.25c0.0823-0.13309 0.0242-0.28379-0.12909-0.33487-0.34907-0.11636-16.386-41.149-16.39-41.936-4e-3 -0.75436 0.66996-1.408 1.4518-1.408 0.55998 0 38.159 14.525 41.209 15.92 1.1072 0.50623 1.2568 0.67271 1.2568 1.3984 0 1.0428 0.14755 0.95704-8.2203 4.7748-3.7007 1.6884-6.9059 3.2452-7.1226 3.4595-0.34802 0.34416 0.52439 1.3065 7.4745 8.2451 5.7274 5.718 7.8685 8.02 7.8685 8.4601 0 0.86685-0.90774 1.6629-1.8962 1.6629-0.46082 0-0.78095-0.0569-0.7114-0.12645 0.0695-0.0695-3.3626-3.6082-7.6271-7.8636-6.7831-6.7688-7.8011-7.6885-8.1333-7.348-0.20888 0.21403-1.7684 3.4252-3.4656 7.136-3.866 8.4526-3.7185 8.2021-4.8297 8.2021-0.48654 0-0.81732-0.10889-0.73506-0.24198zm4.4837-12.656c1.5698-3.4561 3.1114-6.5338 3.4256-6.8393 0.31423-0.3055 3.404-1.8431 6.8662-3.4169 4.612-2.0964 6.2739-2.9702 6.2165-3.2683-0.10156-0.52739-32.21-13.118-32.561-12.768-0.37443 0.37443 12.264 32.576 12.785 32.576 0.28232 0 1.3151-1.9864 3.2671-6.2839zm-67.374-12.702-0.7276-0.45112v-9.5821l0.67391-0.30705c2.0184-0.91964 2.466-0.20764 2.5589 4.0702l0.07446 3.4279 3.4664 0.1323c3.7932 0.14476 4.3388 0.34657 4.3388 1.6049 0 1.376-0.67554 1.5709-5.4167 1.5631-3.5267-6e-3 -4.3631-0.083-4.9682-0.45816zm17.058 0.0533c-0.72603-0.50853-0.78002-1.7136-0.10418-2.3252 0.3762-0.34045 1.0238-0.43788 2.9104-0.43788 2.0738 0 2.5035 0.0769 2.9557 0.52916 0.29104 0.29104 0.52917 0.76729 0.52917 1.0583 0 0.29104-0.23812 0.76729-0.52917 1.0583-0.44878 0.44878-0.88194 0.52917-2.8515 0.52917-1.6737 0-2.4866-0.11505-2.9104-0.41188zm12.391-0.29116c-0.60032-0.76318-0.52646-1.5741 0.19501-2.1412 0.26812-0.21077 1.3141-0.33073 2.8837-0.33073 2.1102 0 2.5388 0.0758 2.9921 0.52916 0.29104 0.29104 0.52917 0.76729 0.52917 1.0583 0 0.29104-0.23812 0.76729-0.52917 1.0583-0.45433 0.45433-0.88194 0.52917-3.0235 0.52917-2.3848 0-2.5186-0.0309-3.0473-0.70304zm12.895 0.38113c-0.75158-0.57344-0.8624-1.6709-0.23234-2.301 0.48087-0.48087 0.86782-0.55157 2.9995-0.54804 2.6422 4e-3 2.8597 0.0705 3.3608 1.0212 0.2828 0.53655 0.25554 0.72984-0.18654 1.3229-0.48625 0.65234-0.66906 0.69912-3.0071 0.76954-1.7205 0.0518-2.6268-0.0299-2.9344-0.26459zm-42.344-17.077c-0.71558-0.44366-0.7276-0.49506-0.7276-3.1109 0-2.6578 5.85e-4 -2.6601 0.7716-3.1156 0.87108-0.51456 1.9426-0.28666 2.235 0.47537 0.09261 0.24133 0.16838 1.5006 0.16838 2.7984 0 2.0068-0.07911 2.4387-0.52917 2.8888-0.64059 0.64058-0.97046 0.65158-1.9182 0.064zm63.037-0.064c-0.45337-0.45338-0.52917-0.88195-0.52917-2.9921 0-2.6029 0.20355-3.1685 1.2524-3.4799 0.43408-0.12888 0.77429 8e-3 1.2819 0.51552 0.66393 0.66393 0.68739 0.78961 0.59972 3.213-0.077 2.1273-0.17163 2.5808-0.60483 2.8973-0.7119 0.52017-1.3771 0.46899-2-0.15389zm-62.968-12.565c-0.17983-0.21668-0.43253-0.32871-0.56156-0.24897-0.13083 0.0809-0.2346-1.1071-0.2346-2.6857 0-3.1607 0.1834-3.5263 1.7766-3.5421 1.1694-0.0116 1.3984 0.5475 1.3984 3.4138 0 2.0459-0.07783 2.4765-0.52917 2.9278-0.62684 0.62683-1.395 0.68298-1.8497 0.1352zm62.968-0.1352c-0.45367-0.45367-0.52917-0.88195-0.52917-3.0017 0-2.7305 0.30622-3.3483 1.6595-3.3483 1.1442 0 1.5155 0.8571 1.5155 3.4984 0 1.9696-0.0804 2.4028-0.52917 2.8516-0.29104 0.29104-0.76729 0.52916-1.0583 0.52916s-0.76729-0.23812-1.0583-0.52916zm-63.053-12.555c-0.21135-0.21135-0.45798-0.31057-0.54806-0.22049-0.09008 0.0901-0.16379-1.1228-0.16379-2.6954 0-3.1351 0.19152-3.5534 1.6347-3.5706 1.2867-0.0153 1.5403 0.55027 1.5403 3.4351 0 2.3992-0.0479 2.6455-0.58804 3.0238-0.73536 0.51507-1.3782 0.52453-1.8751 0.0276zm63.053-0.14489c-0.45367-0.45367-0.52917-0.88195-0.52917-3.0017 0-2.7305 0.30622-3.3483 1.6595-3.3483 1.1442 0 1.5155 0.8571 1.5155 3.4984 0 1.9696-0.0804 2.4028-0.52917 2.8516-0.29104 0.29104-0.76729 0.52916-1.0583 0.52916s-0.76729-0.23812-1.0583-0.52916zm-63.302-12.804c-0.41019-0.31138-0.46302-0.88402-0.46302-5.0187 0-6.1587-0.43313-5.7255 5.7255-5.7255 5.1053 0 5.3597 0.07627 5.3786 1.6126 0.01612 1.3156-0.63577 1.5624-4.1267 1.5624-2.1108 0-3.2733 0.10592-3.4849 0.3175-0.21209 0.21209-0.3175 1.3844-0.3175 3.5309 0 2.777-0.0657 3.2728-0.48385 3.6512-0.57841 0.52345-1.5887 0.555-2.2281 0.06957zm63.21-0.11554c-0.35854-0.39619-0.43788-1.0862-0.43788-3.8082 0-2.7872-0.0676-3.3502-0.41851-3.4849-0.23019-0.08833-1.8191-0.1606-3.5309-0.1606-2.6792 0-3.1733-0.06734-3.5502-0.48385-0.51646-0.57068-0.55054-1.0961-0.13082-2.0172l0.30705-0.67391h9.5906l0.45392 0.76843c0.63993 1.0833 0.67342 8.8546 0.042 9.756-0.50853 0.72603-1.7136 0.78002-2.3252 0.10418zm-46.012-7.7394c-0.55493-0.32322-0.6105-1.7467-0.09471-2.4262 0.29238-0.38516 0.78435-0.46302 2.9257-0.46302 2.3461 0 2.6183 0.05277 3.0709 0.59531 0.61111 0.73254 0.63662 1.2289 0.10236 1.9916-0.37822 0.53998-0.62147 0.58738-2.9766 0.57999-1.4106-0.0044-2.773-0.1294-3.0277-0.27773zm12.502-0.24339c-0.64607-0.64607-0.65602-0.89423-0.07525-1.8774 0.45322-0.76725 0.45801-0.76843 3.118-0.76843 2.6599 0 2.6647 0.0012 3.118 0.76843 0.58078 0.98317 0.57083 1.2313-0.07525 1.8774-0.4549 0.4549-0.88194 0.52917-3.0427 0.52917-2.1608 0-2.5878-0.07427-3.0427-0.52917zm12.7 0c-0.64607-0.64607-0.65602-0.89423-0.07525-1.8774 0.45322-0.76725 0.45801-0.76843 3.118-0.76843 2.6625 0 2.6643 4.58e-4 3.1198 0.7716 0.51456 0.87108 0.28666 1.9426-0.47536 2.235-0.24133 0.09261-1.5006 0.16838-2.7984 0.16838-2.0068 0-2.4387-0.07911-2.8888-0.52917z" fill="#373737"/><path id="path828" d="m108.68 179.31c0.0947-0.0948-2e-3 -0.30312-0.21396-0.46302-0.59023-0.44431-16.584-41.667-16.396-42.259 0.21422-0.67497 1.0734-1.0952 1.7858-0.87352 1.0975 0.34157 40.535 15.773 41.067 16.069 0.29104 0.16202 0.61846 0.26929 0.7276 0.23838 0.10914-0.0309 0.19844 0.3605 0.19844 0.86983 0 0.50932-0.0893 0.90457-0.19844 0.87833-0.10914-0.0263-0.55562 0.164-0.99219 0.42276-0.43656 0.25875-3.8286 1.8597-7.5378 3.5577-4.9309 2.2573-6.7698 3.2208-6.8397 3.5838-0.069 0.35835 2.0237 2.6167 7.5212 8.1167 4.1892 4.1911 7.7136 7.5604 7.8319 7.4872 0.11831-0.0731 0.21511 0.29783 0.21511 0.82433s-0.10557 0.89202-0.2346 0.81228c-0.29135-0.18006-0.88432 0.49415-0.64505 0.73342 0.0958 0.0958-0.22278 0.17409-0.70785 0.17409s-0.82504-0.0569-0.75549-0.12645c0.0695-0.0695-3.348-3.5936-7.5946-7.8312-5.5385-5.5268-7.8604-7.6779-8.214-7.6098-0.3584 0.069-1.3356 1.9356-3.5802 6.839-1.698 3.7092-3.299 7.1013-3.5578 7.5378-0.25876 0.43656-0.449 0.88304-0.42276 0.99218 0.0263 0.10914-0.32931 0.19844-0.79013 0.19844-0.46081 0-0.76032-0.0775-0.66557-0.17227zm4.4086-12.726c1.6338-3.6016 3.0579-6.6422 3.1647-6.7569 0.10685-0.11465 3.1604-1.5714 6.7856-3.2373 3.6344-1.6701 6.6282-3.2006 6.6734-3.4117 0.0452-0.21058-0.13343-0.49679-0.39688-0.63601-1.0674-0.5641-31.819-12.483-32.207-12.483-0.23034 0-0.42156 0.20836-0.42494 0.46302-0.0034 0.25466 2.8131 7.6961 6.2589 16.536 4.9119 12.602 6.3634 16.073 6.7204 16.073 0.3385 0 1.2178-1.6808 3.4258-6.5484zm-67.545-12.886c-0.21135-0.21135-0.45798-0.31057-0.54806-0.22049-0.09008 0.0901-0.16379-2.0587-0.16379-4.7751s0.0893-4.92 0.19844-4.8969c0.10914 0.0231 0.39814-0.0459 0.64222-0.15322 0.75973-0.33421 1.6452-0.0497 1.9931 0.64038 0.21043 0.41743 0.33489 1.7979 0.33735 3.742 0.0032 2.5626 0.07427 3.1076 0.42242 3.2412 0.23018 0.0883 1.8348 0.1606 3.5658 0.1606 3.0651 0 3.1586 0.0172 3.5807 0.66146 0.40148 0.61274 0.40148 0.71017 0 1.3229l-0.4334 0.66146h-4.6052c-3.6736 0-4.6829-0.0777-4.9895-0.38427zm16.902-0.0315c-0.48335-0.48335-0.52605-1.0005-0.14188-1.7183 0.24348-0.45495 0.57545-0.51177 2.9898-0.51177 2.9306 0 3.3509 0.16591 3.3509 1.3229 0 1.1465-0.42794 1.3229-3.209 1.3229-1.9872 0-2.6688-0.0948-2.9898-0.41577zm12.7 0c-0.49346-0.49346-0.5435-1.4673-0.09827-1.9126 0.20503-0.20503 1.2641-0.3175 2.9898-0.3175 2.8847 0 3.3073 0.16905 3.3073 1.3229 0 1.1465-0.42794 1.3229-3.209 1.3229-1.9872 0-2.6688-0.0948-2.9898-0.41577zm12.602 0.0983c-0.17462-0.17462-0.3175-0.62706-0.3175-1.0054 0-1.157 0.42025-1.3229 3.3509-1.3229 2.4143 0 2.7463 0.0568 2.9898 0.51177 0.38417 0.71782 0.34147 1.2349-0.14188 1.7183-0.52436 0.52436-5.3742 0.60539-5.8813 0.0983zm-42.189-16.986c-0.21925-0.21925-0.47235-0.32494-0.56243-0.23485-0.09008 0.0901-0.16379-1.1261-0.16379-2.7025 0-1.5765 0.07371-2.7926 0.16379-2.7025 0.09008 0.0901 0.34318-0.0156 0.56243-0.23485 0.58477-0.58477 1.7147-0.35759 2.108 0.42384 0.18313 0.3638 0.33296 1.4949 0.33296 2.5135 0 1.0186-0.14983 2.1497-0.33296 2.5135-0.39335 0.78143-1.5233 1.0086-2.108 0.42384zm63.091 0.0524c-0.20503-0.20503-0.3175-1.2641-0.3175-2.9898 0-2.8301 0.17671-3.3073 1.2246-3.3073 1.1598 0 1.4212 0.6263 1.4212 3.4056 0 2.7811-0.17642 3.209-1.3229 3.209-0.37835 0-0.83079-0.14288-1.0054-0.3175zm-63.186-12.761c-0.08701-0.22674-0.26478-0.34638-0.39506-0.26586-0.1338 0.0827-0.23686-1.0884-0.23686-2.6914 0-1.5608 0.07964-2.7582 0.17697-2.6609 0.09733 0.0973 0.39019-0.016 0.6508-0.25185 0.65031-0.58852 1.7644-0.27722 2.092 0.58456 0.36362 0.95639 0.3087 4.087-0.08544 4.8702-0.40227 0.79938-1.9435 1.09-2.2024 0.41529zm63.186 0.061c-0.2057-0.2057-0.3175-1.2738-0.3175-3.0334 0-2.4143 0.0568-2.7463 0.51178-2.9898 1.5892-0.85053 2.1341-0.051 2.1341 3.1317 0 2.7811-0.17642 3.209-1.3229 3.209-0.37835 0-0.83079-0.14287-1.0054-0.3175zm-63.186-12.761c-0.08701-0.22674-0.26478-0.34638-0.39506-0.26586-0.1338 0.0827-0.23686-1.0884-0.23686-2.6914 0-1.5608 0.07964-2.7582 0.17697-2.6609 0.09733 0.0973 0.39019-0.016 0.6508-0.25185 0.65031-0.58852 1.7644-0.27722 2.092 0.58456 0.36362 0.95639 0.3087 4.087-0.08544 4.8702-0.40227 0.79938-1.9435 1.09-2.2024 0.41529zm63.186 0.061c-0.50712-0.50712-0.42608-5.357 0.0983-5.8813 0.55242-0.55242 1.2548-0.52574 1.7922 0.0681 0.34258 0.37854 0.43789 1.0293 0.43789 2.9898 0 1.5963-0.11526 2.6212-0.3175 2.8234-0.40929 0.40929-1.6016 0.40929-2.0108 0zm-62.93-12.77c-0.3043-0.21314-0.62845-0.31236-0.72033-0.22049-0.09188 0.09188-0.16705-2.0625-0.16705-4.7875 0-2.8136 0.10138-4.8918 0.2346-4.8095 0.29134 0.18006 0.88432-0.49415 0.64504-0.73342-0.09575-0.09575 2.0484-0.17409 4.7648-0.17409 2.7164 0 4.9136 0.0893 4.8827 0.19844-0.03092 0.10914 0.09474 0.47082 0.27924 0.80374 0.4396 0.79324 0.15867 1.6122-0.65977 1.9234-0.36082 0.13718-2.0678 0.24943-3.7933 0.24943h-3.1373l-0.08665 3.5938c-0.07702 3.1944-0.14372 3.6354-0.60024 3.9688-0.64859 0.47355-0.95104 0.47123-1.6417-0.01255zm63.028-0.02824c-0.32789-0.32789-0.41654-1.0409-0.41939-3.3734-5e-3 -4.449 0.32121-4.0928-3.846-4.1944-2.2455-0.05476-3.6468-0.19951-3.8439-0.39706-0.45031-0.45142-0.37997-1.7134 0.11571-2.0759 0.23421-0.17126 0.34832-0.3889 0.25356-0.48365-0.0948-0.09475 2.0105-0.17228 4.6784-0.17228s4.777 0.07371 4.6869 0.16379c-0.0901 0.09008 9e-3 0.33671 0.22048 0.54806 0.30632 0.30632 0.38428 1.3115 0.38428 4.9546 0 4.0916-0.0507 4.6162-0.48386 5.0082-0.60766 0.54993-1.2108 0.55756-1.7462 0.02211zm-45.924-7.863c-0.79319-0.39986-0.99572-1.3783-0.41756-2.0171 0.23029-0.25447 0.33908-0.54231 0.24175-0.63964-0.09733-0.09733 1.1001-0.17697 2.6609-0.17697 1.6031 0 2.7741 0.10306 2.6914 0.23686-0.08051 0.13027 0.03152 0.30513 0.24897 0.38857 0.62282 0.239 0.4951 1.656-0.19268 2.1377-0.73037 0.51157-4.2635 0.55926-5.2328 0.07063zm12.7 5.02e-4c-0.78143-0.39335-1.0086-1.5233-0.42384-2.108 0.21925-0.21925 0.32494-0.47234 0.23485-0.56243-0.09008-0.09009 1.1261-0.1638 2.7025-0.1638 1.5765 0 2.7926 0.07371 2.7025 0.16379-0.09009 0.09008 0.01558 0.34318 0.23485 0.56243 0.58477 0.58477 0.35759 1.7147-0.42384 2.108-0.3638 0.18313-1.4949 0.33296-2.5135 0.33296-1.0186 0-2.1497-0.14983-2.5135-0.33296zm12.7 0c-0.78142-0.39335-1.0086-1.5233-0.42384-2.108 0.21925-0.21925 0.32494-0.47234 0.23485-0.56243-0.09008-0.09009 1.1261-0.1638 2.7025-0.1638s2.7926 0.07371 2.7025 0.16379c-0.09009 0.09008 0.01558 0.34318 0.23485 0.56243 0.58477 0.58477 0.35759 1.7147-0.42384 2.108-0.3638 0.18313-1.4949 0.33296-2.5135 0.33296s-2.1497-0.14983-2.5135-0.33296z" fill="#151515"/></g></g></svg>
