<?xml version="1.0" encoding="UTF-8" standalone="no"?>
<!-- Created with Inkscape (http://www.inkscape.org/) -->

<svg
   xmlns:dc="http://purl.org/dc/elements/1.1/"
   xmlns:cc="http://creativecommons.org/ns#"
   xmlns:rdf="http://www.w3.org/1999/02/22-rdf-syntax-ns#"
   xmlns:svg="http://www.w3.org/2000/svg"
   xmlns="http://www.w3.org/2000/svg"
   xmlns:sodipodi="http://sodipodi.sourceforge.net/DTD/sodipodi-0.dtd"
   xmlns:inkscape="http://www.inkscape.org/namespaces/inkscape"
   width="1024"
   height="1024"
   viewBox="0 0 270.93333 270.93334"
   version="1.1"
   id="svg8"
   inkscape:version="0.92.3 (2405546, 2018-03-11)"
   sodipodi:docname="select.svg">
  <defs
     id="defs2" />
  <sodipodi:namedview
     id="base"
     pagecolor="#ffffff"
     bordercolor="#666666"
     borderopacity="1.0"
     inkscape:pageopacity="0.0"
     inkscape:pageshadow="2"
     inkscape:zoom="0.7"
     inkscape:cx="186.04746"
     inkscape:cy="585.61413"
     inkscape:document-units="mm"
     inkscape:current-layer="layer1"
     showgrid="false"
     units="px"
     inkscape:window-width="1920"
     inkscape:window-height="1011"
     inkscape:window-x="0"
     inkscape:window-y="0"
     inkscape:window-maximized="1" />
  <metadata
     id="metadata5">
    <rdf:RDF>
      <cc:Work
         rdf:about="">
        <dc:format>image/svg+xml</dc:format>
        <dc:type
           rdf:resource="http://purl.org/dc/dcmitype/StillImage" />
        <dc:title></dc:title>
      </cc:Work>
    </rdf:RDF>
  </metadata>
  <g
     inkscape:label="Livello 1"
     inkscape:groupmode="layer"
     id="layer1"
     transform="translate(0,-26.06665)">
    <g
       id="g826"
       transform="matrix(2.9693694,0,0,2.9409719,-132.76973,-231.66529)">
      <path
         style="fill:#a1a1a1;stroke-width:0.26458332"
         d="m 108.01119,179.15516 c -0.5723,-0.47634 -2.2887,-4.63951 -8.665108,-21.01747 -4.373293,-11.23291 -7.951441,-20.73597 -7.951441,-21.11792 0,-1.02284 0.415039,-1.62643 1.340094,-1.94891 0.758163,-0.26429 2.438323,0.3448 21.605175,7.83233 11.43069,4.4654 20.94527,8.2811 21.1435,8.47934 0.60188,0.60187 0.72532,1.6432 0.30042,2.53415 -0.35405,0.74237 -1.17005,1.18486 -7.57632,4.10839 -3.94874,1.80202 -7.17954,3.34711 -7.17954,3.43352 0,0.0864 3.32573,3.49359 7.3905,7.57151 7.73772,7.76273 8.14726,8.29687 7.39252,9.64152 -0.55097,0.98163 -1.56308,1.26314 -2.653,0.73792 -0.48687,-0.23461 -4.09908,-3.64687 -8.02714,-7.58279 -3.92805,-3.93592 -7.21308,-7.15621 -7.30006,-7.15621 -0.087,0 -1.63461,3.2265 -3.43917,7.17 -2.67242,5.84 -3.41398,7.23875 -3.99774,7.54062 -0.99739,0.51577 -1.55504,0.46288 -2.38269,-0.226 z m 4.67818,-13.42629 c 1.51659,-3.35562 2.85846,-5.96043 3.27198,-6.35149 0.38555,-0.36463 3.41499,-1.90116 6.7321,-3.41453 3.31711,-1.51336 5.93648,-2.83705 5.82083,-2.94153 -0.3037,-0.27437 -30.854287,-12.16683 -30.966685,-12.05443 -0.09466,0.0947 11.403355,29.74678 11.900965,30.69126 0.32849,0.6235 0.0439,1.14413 3.24081,-5.92928 z M 45.212218,154.18086 c -0.637087,-0.68743 -0.648825,-0.78348 -0.648825,-5.30906 0,-5.53566 0.199534,-6.14864 2.0044,-6.15763 0.50885,-0.003 1.026112,0.22197 1.380452,0.59915 0.506636,0.53929 0.574596,0.95277 0.641433,3.9026 l 0.07476,3.29941 3.346926,0.13229 c 3.892787,0.15387 4.458282,0.42511 4.458282,2.13847 0,0.76315 -0.164117,1.12722 -0.69714,1.54649 -0.644655,0.50709 -1.043991,0.54837 -5.3043,0.54837 h -4.607161 z m 16.793322,-0.0733 c -0.425369,-0.42536 -0.773398,-1.02983 -0.773398,-1.34326 0,-0.31343 0.348029,-0.9179 0.773398,-1.34327 0.752934,-0.75294 0.844258,-0.7734 3.451609,-0.7734 2.490757,0 2.723668,0.0455 3.327645,0.64943 0.859193,0.85919 0.859193,2.07528 0,2.93447 -0.603977,0.60398 -0.836888,0.64943 -3.327645,0.64943 -2.607351,0 -2.698675,-0.0205 -3.451609,-0.7734 z m 12.7,0 c -0.839099,-0.83909 -0.94143,-1.32714 -0.465598,-2.22055 0.571238,-1.07254 1.042072,-1.22223 3.872021,-1.23097 2.611533,-0.008 2.75154,0.0206 3.373438,0.69168 0.713755,0.77016 0.809511,1.41425 0.341024,2.29387 -0.566722,1.06405 -1.04824,1.22222 -3.747447,1.23096 -2.525917,0.008 -2.62209,-0.0136 -3.373438,-0.76499 z m 13.069914,0.45888 c -0.713455,-0.34492 -1.25108,-1.57495 -1.01437,-2.32076 0.420264,-1.32413 1.105638,-1.59805 3.99847,-1.59805 2.695416,0 2.707068,0.003 3.389693,0.81405 0.886016,1.05297 0.864632,1.69283 -0.08842,2.64588 -0.747583,0.74759 -0.85576,0.7728 -3.241145,0.7555 -1.35726,-0.01 -2.727164,-0.14333 -3.044228,-0.29662 z m -42.563236,-17.3189 c -0.59308,-0.63995 -0.648825,-0.91386 -0.648825,-3.18814 0,-3.49109 0.676706,-4.61894 2.497213,-4.16202 1.209584,0.30359 1.471537,1.01922 1.471537,4.02011 0,2.54709 -0.04379,2.77507 -0.649432,3.38071 -0.850675,0.85067 -1.852781,0.83166 -2.670493,-0.0507 z m 62.971442,0.0507 c -0.60262,-0.60262 -0.64944,-0.83948 -0.64944,-3.28565 0,-3.07658 0.0798,-3.36413 1.07726,-3.87992 1.07556,-0.55619 1.51073,-0.48564 2.38268,0.38631 0.74061,0.74061 0.7734,0.87469 0.7734,3.16255 0,2.65127 -0.27444,3.53597 -1.23225,3.97238 -0.99242,0.45218 -1.64206,0.35392 -2.35165,-0.35567 z M 45.110576,124.47917 c -0.457283,-0.64219 -0.547183,-1.16599 -0.547183,-3.18814 0,-2.7335 0.385295,-3.82103 1.448255,-4.08781 0.773696,-0.19419 2.107694,0.39735 2.356141,1.0448 0.09039,0.23556 0.164354,1.6146 0.164354,3.06452 0,2.44617 -0.04682,2.68303 -0.649432,3.28565 -0.918104,0.9181 -2.068818,0.8687 -2.772135,-0.11902 z m 63.073084,0.11902 c -0.60671,-0.60671 -0.64944,-0.83143 -0.64944,-3.41606 0,-2.76456 5.3e-4,-2.76715 0.81406,-3.45162 1.05296,-0.88601 1.69283,-0.86463 2.64588,0.0884 0.75097,0.75096 0.7734,0.84959 0.7734,3.40094 0,2.42236 -0.0507,2.68223 -0.64883,3.32765 -0.84723,0.91418 -2.05078,0.93495 -2.93507,0.0507 z M 45.110576,111.77917 c -0.457283,-0.64219 -0.547183,-1.16599 -0.547183,-3.18814 0,-2.59018 0.425813,-3.94585 1.263565,-4.02283 0.963633,-0.0885 1.51644,0.0757 2.100139,0.62408 0.554908,0.52131 0.605046,0.7958 0.605046,3.31245 0,2.56063 -0.0434,2.78743 -0.649432,3.39346 -0.918104,0.9181 -2.068818,0.8687 -2.772135,-0.11902 z m 63.073084,0.11902 c -0.60284,-0.60284 -0.64944,-0.83906 -0.64944,-3.29254 0,-2.39022 0.0593,-2.71202 0.61959,-3.36341 0.85015,-0.98837 2.14401,-0.98837 2.99416,0 0.56031,0.65139 0.61959,0.97319 0.61959,3.36341 0,2.45348 -0.0466,2.6897 -0.64944,3.29254 -0.40937,0.40937 -0.95172,0.64943 -1.46723,0.64943 -0.51551,0 -1.05786,-0.24006 -1.46723,-0.64943 z M 45.816568,99.66151 c -1.020767,-0.259575 -1.253175,-1.402496 -1.253175,-6.162776 0,-4.449507 0.01056,-4.533646 0.649432,-5.172514 0.638915,-0.638916 0.722744,-0.649432 5.176769,-0.649432 5.446971,0 6.067036,0.204552 6.075997,2.0044 0.0025,0.50885 -0.22197,1.026112 -0.599147,1.380452 -0.53929,0.506636 -0.952773,0.574596 -3.902604,0.641433 l -3.299405,0.07476 -0.07376,3.334469 c -0.06763,3.057143 -0.122639,3.379192 -0.661459,3.872195 -0.664389,0.607893 -1.425422,0.851773 -2.112648,0.677016 z M 108.98025,99.5934 c -1.12822,-0.452145 -1.3083,-1.010213 -1.44603,-4.481383 l -0.13229,-3.334185 -3.2994,-0.07476 c -2.94983,-0.06684 -3.36332,-0.134797 -3.90261,-0.641433 -0.377173,-0.35434 -0.601677,-0.871602 -0.599145,-1.380452 0.0089,-1.791518 0.640305,-2.0044 5.944815,-2.0044 4.56621,0 5.68111,0.221314 6.05761,1.202479 0.0904,0.235565 0.16436,2.435985 0.16436,4.889823 0,4.256352 -0.0274,4.491636 -0.59532,5.116353 -0.69856,0.768408 -1.442,1.008519 -2.19199,0.707955 z M 62.351055,91.468454 c -0.572079,-0.230174 -1.142558,-1.620958 -0.961234,-2.343411 0.266786,-1.06296 1.354312,-1.448255 4.087817,-1.448255 2.022144,0 2.545945,0.0899 3.18814,0.547183 0.987716,0.703317 1.03712,1.854031 0.119016,2.772135 -0.608739,0.608739 -0.820116,0.648123 -3.373438,0.628544 -1.498203,-0.01149 -2.875339,-0.08178 -3.060301,-0.156196 z m 12.23052,-0.472348 c -1.018908,-1.018906 -0.835028,-2.279183 0.427823,-2.932229 1.015796,-0.525288 5.031774,-0.525288 6.047571,0 1.262851,0.653046 1.446731,1.913323 0.427823,2.932229 -0.607759,0.607761 -0.829233,0.649432 -3.451609,0.649432 -2.622375,0 -2.84385,-0.04167 -3.451608,-0.649432 z m 12.699999,0 c -1.018907,-1.018906 -0.835027,-2.279183 0.427824,-2.932229 0.486714,-0.251689 1.544404,-0.387089 3.023785,-0.387089 3.263942,0 4.396261,0.716002 3.949205,2.497213 -0.303585,1.209584 -1.019217,1.471537 -4.020103,1.471537 -2.547098,0 -2.775074,-0.04379 -3.380711,-0.649432 z"
         id="path840"
         inkscape:connector-curvature="0" />
      <path
         style="fill:#838383;stroke-width:0.26458332"
         d="m 108.24389,179.17581 c -0.52388,-0.46822 -2.58131,-5.47865 -8.636193,-21.03167 -4.37166,-11.22935 -7.948472,-20.77548 -7.948472,-21.21361 0,-0.75457 0.983771,-1.89333 1.635651,-1.89333 0.132752,0 9.552404,3.63324 20.932544,8.07386 21.96436,8.57065 22.12109,8.64381 21.75144,10.15348 -0.093,0.37971 -0.31004,0.83107 -0.48236,1.00302 -0.17232,0.17196 -3.46436,1.75138 -7.31563,3.50982 -3.85127,1.75844 -7.12115,3.31599 -7.26639,3.46123 -0.1757,0.17571 2.27219,2.80831 7.31527,7.86727 4.94274,4.95829 7.64169,7.85698 7.75858,8.33273 0.36413,1.48216 -1.37458,2.78491 -2.6191,1.96238 -0.31202,-0.20621 -3.93704,-3.68205 -8.0556,-7.72408 -4.40783,-4.32591 -7.58545,-7.25143 -7.72444,-7.11161 -0.12987,0.13064 -1.68021,3.39268 -3.4452,7.24899 -1.76499,3.8563 -3.34915,7.15245 -3.52036,7.32477 -0.65876,0.66307 -1.66163,0.67856 -2.37974,0.0368 z m 4.58521,-13.14048 c 1.5437,-3.37711 2.98257,-6.31605 3.19751,-6.53099 0.21493,-0.21493 3.17464,-1.67055 6.57713,-3.23469 3.40248,-1.56415 6.22841,-2.97079 6.27983,-3.12586 0.0763,-0.23013 -30.82018,-12.55034 -31.473579,-12.55034 -0.106984,0 -0.194517,0.11949 -0.194517,0.26553 0,0.14604 2.612602,6.96237 5.805776,15.14739 3.19318,8.18503 5.93235,15.21897 6.08705,15.63098 0.15469,0.41201 0.42365,0.70165 0.59767,0.64364 0.17402,-0.058 1.57943,-2.86855 3.12313,-6.24566 z M 45.212825,153.96694 c -0.638315,-0.63832 -0.649432,-0.72602 -0.649432,-5.1237 0,-4.12586 0.0427,-4.52854 0.54837,-5.1714 0.67092,-0.85293 1.865287,-0.92931 2.62663,-0.16797 0.467374,0.46737 0.529167,0.88194 0.529167,3.55023 0,1.66159 0.07227,3.20941 0.160599,3.43959 0.134383,0.35019 0.691071,0.41851 3.410271,0.41851 2.76392,0 3.339744,0.0729 3.852248,0.48794 0.819244,0.66338 0.819244,2.06491 0,2.72829 -0.534107,0.4325 -1.126726,0.48794 -5.215498,0.48794 -4.544894,0 -4.622501,-0.01 -5.262355,-0.64943 z m 16.933332,0 c -0.357187,-0.35719 -0.649431,-0.89838 -0.649431,-1.20265 0,-0.30427 0.292244,-0.84547 0.649431,-1.20265 0.601799,-0.6018 0.840992,-0.64944 3.261171,-0.64944 2.387923,0 2.66104,0.0525 3.187027,0.61237 0.746338,0.79444 0.731605,1.79437 -0.03708,2.51651 -0.54212,0.5093 -0.907708,0.57529 -3.187027,0.57529 -2.380813,0 -2.623557,-0.0489 -3.224093,-0.64943 z m 12.700001,0 c -0.79339,-0.79339 -0.821198,-1.4421 -0.101063,-2.3576 0.528712,-0.67214 0.645629,-0.69714 3.261172,-0.69714 2.493561,0 2.759292,0.0495 3.288088,0.61237 0.746337,0.79444 0.731605,1.79437 -0.03708,2.51651 -0.542121,0.5093 -0.907709,0.57529 -3.187028,0.57529 -2.380811,0 -2.623555,-0.0489 -3.224091,-0.64943 z m 12.598937,-0.0477 c -0.301604,-0.38343 -0.54837,-0.90315 -0.54837,-1.15494 0,-0.2518 0.246766,-0.77152 0.54837,-1.15495 0.529336,-0.67294 0.643464,-0.69714 3.288088,-0.69714 2.644624,0 2.758752,0.0242 3.288088,0.69714 0.720135,0.9155 0.692327,1.56421 -0.101063,2.3576 -0.602692,0.60269 -0.839327,0.64943 -3.288088,0.64943 -2.535444,0 -2.660105,-0.0273 -3.187025,-0.69714 z M 45.212825,137.0336 c -0.599236,-0.59923 -0.649432,-0.84556 -0.649432,-3.18702 0,-2.34146 0.0502,-2.58779 0.649432,-3.18703 0.815148,-0.81515 1.735551,-0.82891 2.479447,-0.0371 0.512927,0.54599 0.575288,0.9045 0.575288,3.3073 0,2.34215 -0.06927,2.76419 -0.529167,3.22409 -0.715099,0.7151 -1.73896,0.66634 -2.525568,-0.12027 z m 63.161265,0.0371 c -0.51236,-0.54539 -0.57528,-0.90501 -0.57528,-3.28809 0,-2.57549 0.0261,-2.69626 0.69714,-3.22409 0.9155,-0.72013 1.5642,-0.69233 2.35759,0.10106 0.59924,0.59924 0.64943,0.84557 0.64943,3.18703 0,2.34146 -0.0502,2.58779 -0.64943,3.18702 -0.81515,0.81515 -1.73555,0.82891 -2.47945,0.0371 z M 45.111763,124.2859 c -0.466537,-0.59311 -0.54837,-1.06871 -0.54837,-3.18703 0,-2.29081 0.05193,-2.54181 0.649432,-3.13932 0.793388,-0.79339 1.442093,-0.82119 2.357595,-0.10106 0.6735,0.52978 0.69714,0.64192 0.69714,3.30729 0,2.40615 -0.06766,2.82659 -0.529167,3.28809 -0.761343,0.76134 -1.95571,0.68496 -2.62663,-0.16797 z m 63.262327,0.0848 c -0.51236,-0.54539 -0.57528,-0.90501 -0.57528,-3.28809 0,-2.57548 0.0261,-2.69626 0.69714,-3.22409 0.9155,-0.72013 1.5642,-0.69233 2.35759,0.10106 0.6018,0.6018 0.64943,0.84099 0.64943,3.26117 0,2.38793 -0.0525,2.66104 -0.61236,3.18703 -0.79444,0.74634 -1.79438,0.73161 -2.51652,-0.0371 z M 45.088989,111.55694 c -0.513192,-0.65241 -0.562122,-0.98709 -0.482224,-3.29837 0.0997,-2.88417 0.403241,-3.47206 1.792698,-3.47206 1.55262,0 1.868097,0.62502 1.868097,3.70108 0,2.38434 -0.0682,2.80532 -0.529167,3.26628 -0.772869,0.77287 -1.955721,0.68495 -2.649404,-0.19693 z m 63.238981,0.19693 c -0.45782,-0.45782 -0.52916,-0.88194 -0.52916,-3.14569 0,-3.07024 0.36416,-3.82167 1.85208,-3.82167 1.48161,0 1.85208,0.75522 1.85208,3.77555 0,2.34471 -0.0538,2.62091 -0.61236,3.14569 -0.76523,0.71889 -1.86998,0.73878 -2.56264,0.0461 z M 45.718056,99.270993 c -0.982344,-0.471156 -1.154663,-1.349986 -1.154663,-5.888801 0,-5.896668 -0.335404,-5.547435 5.433459,-5.6575 4.90427,-0.09357 5.830059,0.09393 6.134145,1.24236 0.232181,0.876871 0.134895,1.366412 -0.387699,1.950882 -0.351244,0.39283 -0.901125,0.463021 -3.627371,0.463021 -2.146508,0 -3.31878,0.105412 -3.530867,0.3175 -0.212088,0.212087 -0.3175,1.384359 -0.3175,3.530867 0,2.729071 -0.06978,3.274646 -0.463021,3.619955 -0.659792,0.579375 -1.43225,0.735503 -2.086483,0.421716 z m 63.222524,0.04315 c -0.94293,-0.375894 -1.14177,-1.12318 -1.14177,-4.291002 0,-1.986144 -0.1078,-3.114988 -0.3175,-3.324685 -0.21209,-0.212088 -1.38436,-0.3175 -3.53087,-0.3175 -2.77704,0 -3.27283,-0.0657 -3.65125,-0.483855 -0.682707,-0.754383 -0.559106,-2.028216 0.25926,-2.671942 0.64285,-0.505669 1.04554,-0.54837 5.1714,-0.54837 4.39767,0 4.48538,0.01112 5.12369,0.649432 0.63986,0.639854 0.64943,0.717461 0.64943,5.262355 0,4.012876 -0.0602,4.682579 -0.46302,5.14841 -0.57606,0.666226 -1.34538,0.877727 -2.09937,0.577157 z M 62.045096,90.683815 c -0.681475,-0.866355 -0.692568,-1.447273 -0.04297,-2.250111 0.458412,-0.566551 0.747592,-0.632892 3.110366,-0.713544 2.344595,-0.08003 2.67754,-0.03183 3.331058,0.482224 0.881875,0.693683 0.969794,1.876535 0.196925,2.649404 -0.461503,0.461503 -0.881944,0.529167 -3.288088,0.529167 -2.665368,0 -2.777516,-0.02364 -3.307291,-0.69714 z M 74.7362,90.801898 c -0.675563,-0.725131 -0.687583,-1.560524 -0.03408,-2.368194 0.459685,-0.568121 0.745771,-0.632816 3.16262,-0.715177 2.552081,-0.08697 2.683883,-0.06389 3.331059,0.583286 0.809009,0.809008 0.86681,1.827836 0.144672,2.549975 -0.461722,0.461721 -0.881944,0.529167 -3.296983,0.529167 -2.506589,0 -2.818736,-0.05465 -3.307292,-0.579057 z m 12.689691,0.04989 c -0.722137,-0.722139 -0.664337,-1.740967 0.144672,-2.549975 0.647176,-0.647176 0.778978,-0.670255 3.331059,-0.583286 2.41685,0.08236 2.702936,0.147056 3.16262,0.715177 0.653508,0.80767 0.641488,1.643063 -0.03408,2.368194 -0.488555,0.524404 -0.800703,0.579057 -3.307291,0.579057 -2.41504,0 -2.835262,-0.06745 -3.296984,-0.529167 z"
         id="path838"
         inkscape:connector-curvature="0" />
      <path
         style="fill:#7b7b7b;stroke-width:0.26458332"
         d="m 108.40407,179.35197 c -0.61376,-0.42989 -0.73421,-0.72602 -10.762693,-26.46072 -3.290184,-8.44315 -5.982152,-15.59017 -5.982152,-15.88228 0,-0.90315 0.750797,-1.70718 1.594151,-1.70718 0.670182,0 39.609944,15.01287 41.573654,16.02835 0.93945,0.48581 1.34138,1.23848 1.12396,2.10478 -0.18587,0.74056 -1.37041,1.36045 -10.62354,5.55944 -3.09041,1.4024 -4.56406,2.2052 -4.56406,2.48636 0,0.22838 3.34121,3.74819 7.42491,7.8218 4.0837,4.0736 7.53939,7.61247 7.67932,7.86415 0.13992,0.25167 0.18441,0.7365 0.0988,1.07739 -0.15395,0.6134 -1.34051,1.50772 -2.0004,1.50772 -0.18794,0 -3.89056,-3.53586 -8.22805,-7.85747 -4.89858,-4.88064 -7.97895,-7.76249 -8.13078,-7.60677 -0.13444,0.13789 -1.68199,3.40586 -3.439,7.26216 -3.66471,8.04334 -4.26327,8.85354 -5.76417,7.80227 z m 4.47884,-13.23976 c 1.58741,-3.48506 3.02765,-6.47331 3.20053,-6.64055 0.17288,-0.16725 2.99323,-1.51961 6.26745,-3.00524 7.51166,-3.40831 7.02697,-3.14661 6.5793,-3.55238 -0.51565,-0.46739 -31.152502,-12.36827 -31.5868,-12.26989 -0.342241,0.0775 0.757722,3.00271 10.35788,27.54522 0.95628,2.44469 1.86395,4.40312 2.01705,4.35209 0.15311,-0.051 1.57717,-2.9442 3.16459,-6.42925 z M 45.212825,153.96694 c -0.638855,-0.63886 -0.649432,-0.72308 -0.649432,-5.1714 0,-4.44833 0.01058,-4.53255 0.649432,-5.1714 0.788977,-0.78898 1.84031,-0.83729 2.462012,-0.11312 0.367059,0.42755 0.487259,1.21897 0.592723,3.9026 l 0.132291,3.36629 3.36629,0.13229 c 2.683636,0.10547 3.47505,0.22567 3.902604,0.59272 0.776607,0.66673 0.70011,1.88587 -0.160826,2.56308 -0.642854,0.50567 -1.045542,0.54837 -5.171401,0.54837 -4.397673,0 -4.485378,-0.0111 -5.123693,-0.64943 z m 17.402813,0.47235 c -0.184963,-0.0744 -0.515442,-0.48174 -0.734399,-0.90516 -0.352981,-0.68259 -0.353459,-0.85618 -0.0042,-1.53153 0.517117,-0.99999 0.817429,-1.0904 3.622123,-1.0904 2.165256,0 2.42815,0.0565 3.021068,0.64944 0.824075,0.82407 0.824075,1.58122 0,2.4053 -0.600121,0.60012 -0.836171,0.64784 -3.108854,0.62854 -1.352682,-0.0115 -2.610755,-0.0818 -2.795718,-0.15619 z m 12.360052,-0.31086 c -0.819245,-0.66338 -0.819245,-2.06491 0,-2.72829 0.49044,-0.39714 1.067107,-0.48794 3.098832,-0.48794 2.297567,0 2.547948,0.0517 3.145687,0.64944 0.824076,0.82407 0.824076,1.58122 0,2.4053 -0.597739,0.59774 -0.84812,0.64943 -3.145687,0.64943 -2.031725,0 -2.608392,-0.0908 -3.098832,-0.48794 z m 12.570468,-0.16149 c -0.357188,-0.35719 -0.649433,-0.89838 -0.649433,-1.20265 0,-0.30427 0.292245,-0.84547 0.649433,-1.20265 0.597738,-0.59775 0.848119,-0.64944 3.145686,-0.64944 2.940151,0 3.701407,0.38092 3.701407,1.85209 0,1.47117 -0.761256,1.85208 -3.701407,1.85208 -2.297567,0 -2.547948,-0.0517 -3.145686,-0.64943 z m -41.84099,-16.55033 c -0.317909,-0.12809 -0.704862,-0.46991 -0.859895,-0.75959 -0.345,-0.64464 -0.373396,-4.51966 -0.03956,-5.39773 0.321839,-0.8465 1.630536,-1.39827 2.373439,-1.00068 0.891482,0.47711 1.088403,1.16751 1.088403,3.81595 0,2.39833 -0.03148,2.5365 -0.69714,3.06011 -0.759517,0.59743 -0.994174,0.6329 -1.865252,0.28194 z m 62.743072,-0.38301 c -0.59774,-0.59774 -0.64943,-0.84812 -0.64943,-3.14568 0,-2.92168 0.38412,-3.70141 1.82345,-3.70141 1.44261,0 1.73683,0.56386 1.83898,3.52431 0.0868,2.51718 0.063,2.6521 -0.58329,3.29838 -0.8476,0.8476 -1.59897,0.85515 -2.42971,0.0244 z m -63.235415,-12.7 c -0.585888,-0.58588 -0.649079,-0.86418 -0.645819,-2.84427 0.0046,-2.80935 0.138518,-3.26006 1.10795,-3.72957 1.866743,-0.90409 2.592604,0.0923 2.592604,3.55878 0,2.45885 -0.02957,2.59101 -0.69714,3.11613 -0.915502,0.72013 -1.564207,0.69232 -2.357595,-0.10107 z m 63.235415,0 c -0.59664,-0.59664 -0.64943,-0.84994 -0.64943,-3.11612 0,-2.91101 0.33664,-3.64511 1.66865,-3.63873 1.62517,0.008 2.03551,0.77929 2.03551,3.82704 0,2.06625 -0.0605,2.33885 -0.64943,2.92781 -0.35719,0.35719 -0.89838,0.64944 -1.20265,0.64944 -0.30427,0 -0.84546,-0.29225 -1.20265,-0.64944 z M 45.212825,111.63361 c -0.592343,-0.59235 -0.649432,-0.85668 -0.649432,-3.00703 0,-2.75645 0.496481,-3.75188 1.871287,-3.75188 1.466953,0 1.83288,0.73032 1.83288,3.65805 0,2.37535 -0.05285,2.64936 -0.612366,3.175 -0.80226,0.75368 -1.639971,0.72825 -2.442369,-0.0741 z m 63.235415,0 c -0.59881,-0.59881 -0.64943,-0.84631 -0.64943,-3.175 0,-2.82607 0.37995,-3.58768 1.78593,-3.57985 1.49767,0.008 1.91823,0.84741 1.91823,3.82703 0,2.06625 -0.0605,2.33885 -0.64943,2.92782 -0.35719,0.35718 -0.89838,0.64943 -1.20265,0.64943 -0.30427,0 -0.84546,-0.29225 -1.20265,-0.64943 z M 45.095371,98.600475 c -0.534919,-0.68004 -0.560401,-0.957198 -0.482224,-5.24511 0.108207,-5.935085 -0.306262,-5.520616 5.628823,-5.628823 4.287912,-0.07818 4.56507,-0.05269 5.24511,0.482224 0.806364,0.634286 0.950377,1.694195 0.343256,2.526306 -0.329036,0.450973 -0.804849,0.52972 -3.902604,0.645883 l -3.527881,0.132291 -0.132291,3.527881 c -0.116163,3.097755 -0.19491,3.573568 -0.645883,3.902604 -0.832111,0.607121 -1.89202,0.463108 -2.526306,-0.343256 z m 63.349319,0.343256 c -0.45097,-0.329036 -0.52972,-0.804849 -0.64588,-3.902604 l -0.13229,-3.527881 -3.52788,-0.132291 c -3.09776,-0.116163 -3.57357,-0.19491 -3.90261,-0.645883 -0.558843,-0.765943 -0.454661,-1.679481 0.27471,-2.408852 0.63505,-0.635052 0.74197,-0.649352 4.82865,-0.645819 2.29856,0.002 4.45187,0.07665 4.78512,0.165921 1.1446,0.306611 1.37846,1.301999 1.37846,5.867062 0,3.859313 -0.0458,4.268982 -0.54837,4.907931 -0.6179,0.785533 -1.68695,0.92286 -2.50991,0.322416 z M 62.382322,90.992173 c -0.757919,-0.530867 -0.896519,-1.252864 -0.42672,-2.222892 0.477673,-0.986288 1.311263,-1.194551 4.197834,-1.048786 1.724259,0.08707 2.087575,0.191022 2.515754,0.7198 0.644704,0.796176 0.63226,1.378814 -0.04792,2.24352 -0.525112,0.667572 -0.657276,0.69714 -3.116129,0.69714 -1.830473,0 -2.727134,-0.111632 -3.122821,-0.388782 z M 74.75193,90.692502 c -0.659723,-0.838701 -0.670851,-0.966276 -0.168926,-1.93689 0.465743,-0.900649 1.018487,-1.070497 3.499101,-1.075211 2.375572,-0.0045 3.084142,0.259917 3.520712,1.313896 0.306769,0.740603 0.286285,0.91159 -0.184936,1.543613 -0.5091,0.68283 -0.639545,0.713693 -3.320335,0.785586 -2.747312,0.07368 -2.79899,0.06393 -3.345616,-0.630994 z m 12.699999,0 c -0.659723,-0.838701 -0.670851,-0.966276 -0.168926,-1.93689 0.465744,-0.900649 1.018487,-1.070497 3.499101,-1.075211 2.375572,-0.0045 3.084142,0.259917 3.520713,1.313896 0.306768,0.740603 0.286284,0.91159 -0.184936,1.543613 -0.509101,0.68283 -0.639545,0.713693 -3.320335,0.785586 -2.747312,0.07368 -2.79899,0.06393 -3.345617,-0.630994 z"
         id="path836"
         inkscape:connector-curvature="0" />
      <path
         style="fill:#5e5e5e;stroke-width:0.26458332"
         d="m 108.70018,179.4943 c -0.30462,-0.12317 -0.74217,-0.62164 -0.97236,-1.10771 -0.96731,-2.04267 -16.068595,-41.06897 -16.068595,-41.52614 0,-0.87068 1.008739,-1.63655 1.948013,-1.47899 1.145413,0.19213 41.489502,15.98781 41.872132,16.39395 0.64919,0.68906 0.66491,1.44872 0.0441,2.13372 -0.36012,0.39739 -3.36088,1.92103 -7.41532,3.76515 -3.74572,1.7037 -7.01994,3.25386 -7.27604,3.44481 -0.42031,0.31337 0.3005,1.11572 7.40572,8.24334 4.44113,4.45515 7.87135,8.10239 7.87135,8.36937 0,0.26025 -0.35632,0.82952 -0.79183,1.26503 -0.59871,0.59871 -0.9375,0.74882 -1.38906,0.61548 -0.32848,-0.097 -4.08557,-3.64741 -8.34909,-7.8898 -7.00542,-6.97068 -7.78547,-7.6686 -8.10088,-7.2478 -0.19195,0.2561 -1.74294,3.53032 -3.44664,7.27604 -2.75871,6.06525 -3.89938,8.04769 -4.59402,7.98426 -0.10103,-0.009 -0.43291,-0.11754 -0.73752,-0.24071 z m 4.1755,-13.23508 c 1.55614,-3.3951 3.04474,-6.3865 3.308,-6.64757 0.26327,-0.26106 3.20084,-1.71961 6.52794,-3.24122 5.8955,-2.69623 6.77683,-3.17136 6.46362,-3.48457 -0.40475,-0.40475 -31.851077,-12.50693 -32.030864,-12.32714 -0.161965,0.16196 4.438984,12.22724 12.002804,31.47551 0.13331,0.33925 0.39016,0.56756 0.57077,0.50736 0.18061,-0.0602 1.60159,-2.88727 3.15773,-6.28237 z M 45.69424,154.19287 c -1.099788,-0.55429 -1.192841,-1.08034 -1.084553,-6.13124 0.09285,-4.3308 0.184855,-4.61723 1.594037,-4.96257 0.555828,-0.13621 0.863985,-0.0253 1.389063,0.49973 0.651136,0.65114 0.674773,0.79031 0.674773,3.97307 v 3.29829 l 3.412659,0.0872 c 2.908142,0.0743 3.494871,0.16169 3.96875,0.5912 0.691724,0.62696 0.710835,1.49499 0.05088,2.31093 -0.488973,0.60455 -0.644189,0.62686 -4.828646,0.69411 -3.564081,0.0573 -4.473344,-0.006 -5.176961,-0.36069 z m 17.389986,0.23579 c -1.444775,-0.53123 -1.768961,-2.06886 -0.625777,-2.96809 0.569944,-0.44832 1.07368,-0.54837 2.7609,-0.54837 2.432225,0 3.34204,0.28671 3.67311,1.15749 0.638468,1.6793 -0.571161,2.55725 -3.47999,2.52579 -1.062253,-0.0115 -2.109962,-0.0866 -2.328243,-0.16682 z m 12.699999,0 c -0.778166,-0.28612 -1.322856,-0.96313 -1.318866,-1.63924 0.0049,-0.83466 0.215152,-1.17531 0.970743,-1.57303 0.753409,-0.39656 4.362524,-0.3926 5.236808,0.006 1.326161,0.60423 1.219536,2.62087 -0.164073,3.1032 -0.853139,0.2974 -4.009065,0.36642 -4.724612,0.10331 z m 12.368733,-0.10716 c -1.281795,-0.49071 -1.320842,-2.52465 -0.0595,-3.09935 0.874284,-0.39836 4.483399,-0.40232 5.236808,-0.006 0.755592,0.39772 0.965817,0.73837 0.970743,1.57303 0.0072,1.22775 -0.849376,1.68765 -3.264686,1.75275 -1.18537,0.0319 -2.482887,-0.0674 -2.883363,-0.22067 z M 45.224851,137.00177 c -0.469694,-0.35491 -0.529166,-0.70952 -0.529166,-3.15519 0,-2.44568 0.05947,-2.80029 0.529166,-3.1552 0.74429,-0.5624 1.889923,-0.51113 2.513542,0.11249 0.453116,0.45312 0.529167,0.88194 0.529167,2.98384 0,2.90079 -0.338485,3.63558 -1.668649,3.62233 -0.464691,-0.005 -1.083018,-0.18835 -1.37406,-0.40827 z m 63.222869,0.0434 c -0.41474,-0.30326 -0.52882,-0.7754 -0.60785,-2.51579 -0.10875,-2.39458 0.0305,-3.23001 0.63969,-3.83925 0.58271,-0.58271 1.7909,-0.51721 2.37551,0.12877 0.89292,0.98666 0.86317,5.28821 -0.0429,6.19422 -0.50754,0.50754 -1.69227,0.5236 -2.3645,0.032 z M 45.573211,124.52639 c -0.87376,-0.53938 -1.001627,-0.98957 -1.006205,-3.54257 -0.0042,-2.35355 0.558412,-3.40912 1.817104,-3.40912 1.472882,0 1.742333,0.49199 1.840294,3.36019 0.07628,2.23328 0.01902,2.69118 -0.396875,3.1737 -0.681732,0.79096 -1.426288,0.92895 -2.254318,0.4178 z m 63.346229,0.1824 c -0.83379,-0.33498 -1.12063,-1.27591 -1.12063,-3.67605 0,-2.41258 0.55334,-3.45804 1.83028,-3.45804 1.21603,0 1.72018,0.83788 1.83158,3.04404 0.1193,2.36249 -0.28899,3.773 -1.19148,4.11612 -0.35901,0.1365 -0.67476,0.24063 -0.70167,0.2314 -0.0269,-0.009 -0.31854,-0.12508 -0.64808,-0.25747 z M 45.635246,111.90546 c -0.880367,-0.48755 -1.031597,-0.98856 -1.053257,-3.48935 -0.0218,-2.51748 0.50831,-3.54141 1.833487,-3.54141 1.353631,0 1.852084,1.00975 1.852084,3.75188 0,2.15035 -0.05709,2.41468 -0.649432,3.00703 -0.73629,0.73629 -1.06329,0.78112 -1.982882,0.27185 z m 63.284194,0.10333 c -0.83379,-0.33498 -1.12063,-1.27591 -1.12063,-3.67605 0,-2.41258 0.55334,-3.45804 1.83028,-3.45804 1.21603,0 1.72018,0.83788 1.83158,3.04404 0.1193,2.36249 -0.28899,3.773 -1.19148,4.11612 -0.35901,0.1365 -0.67476,0.24063 -0.70167,0.23141 -0.0269,-0.009 -0.31854,-0.12509 -0.64808,-0.25748 z M 45.212825,98.669023 c -0.637427,-0.637428 -0.649432,-0.730728 -0.649432,-5.047436 v -4.398004 l 0.790856,-0.790856 0.790855,-0.790855 4.524755,0.0836 c 4.387998,0.08108 4.540024,0.102482 5.029977,0.708228 0.659839,0.815781 0.640887,1.683849 -0.05045,2.310931 -0.465165,0.421929 -1.100842,0.525576 -3.902604,0.63632 l -3.346927,0.132291 -0.132291,3.346927 c -0.110744,2.801762 -0.214391,3.437439 -0.63632,3.902604 -0.670617,0.739338 -1.622214,0.702447 -2.418415,-0.09375 z m 63.222305,0.09375 c -0.42193,-0.465165 -0.52558,-1.100842 -0.63632,-3.902604 l -0.13229,-3.346927 -3.39773,-0.132291 c -3.17172,-0.123493 -3.4313,-0.173838 -3.9026,-0.756916 -0.639013,-0.790566 -0.638928,-1.399975 2.6e-4,-2.190335 0.48479,-0.599396 0.66852,-0.628098 4.54906,-0.710622 5.17294,-0.110008 5.61726,-0.02641 6.18174,1.163147 0.36781,0.775089 0.42767,1.633215 0.35758,5.125453 -0.0739,3.681975 -0.14578,4.262455 -0.58822,4.750636 -0.64558,0.712329 -1.78563,0.712544 -2.43152,4.5e-4 z M 62.290476,90.851788 c -0.761344,-0.761343 -0.684964,-1.95571 0.167973,-2.62663 0.567884,-0.446698 1.070706,-0.5477 2.711979,-0.544757 2.578195,0.0046 3.016437,0.134116 3.558303,1.051422 0.519847,0.880031 0.263678,1.912998 -0.587363,2.368461 -0.288441,0.154369 -1.603828,0.280671 -2.923082,0.280671 -2.045866,0 -2.47647,-0.07783 -2.92781,-0.529167 z m 12.758872,0.117289 c -0.696823,-0.488073 -0.783614,-1.820565 -0.17136,-2.630831 0.354912,-0.469694 0.709522,-0.529166 3.155195,-0.529166 2.445674,0 2.800284,0.05947 3.155196,0.529166 0.612254,0.810266 0.525463,2.142758 -0.17136,2.630831 -0.828164,0.580069 -5.139507,0.580069 -5.967671,0 z m 12.699999,0 c -0.696679,-0.487973 -0.783629,-1.820308 -0.171693,-2.630831 0.3385,-0.448351 0.771723,-0.542829 2.83668,-0.618626 2.174713,-0.07983 2.51543,-0.0279 3.163945,0.482224 0.882563,0.694223 0.970748,1.876806 0.197612,2.649944 -0.453117,0.453116 -0.881943,0.529167 -2.983836,0.529167 -1.793449,0 -2.613072,-0.110949 -3.042708,-0.411878 z"
         id="path834"
         inkscape:connector-curvature="0" />
      <path
         style="fill:#454545;stroke-width:0.26458332"
         d="m 108.11639,178.94458 c -0.32645,-0.52273 -15.773805,-39.91114 -16.182917,-41.26398 -0.268277,-0.88713 0.0978,-1.78941 0.868487,-2.14055 0.545333,-0.24847 3.354049,0.7771 21.10825,7.70745 11.26357,4.39674 20.80664,8.18375 21.20683,8.4156 0.55146,0.31949 0.7276,0.62405 0.7276,1.25813 0,0.46013 -0.14983,0.96094 -0.33295,1.11292 -0.18313,0.15198 -3.36805,1.66661 -7.07761,3.36583 -3.70955,1.69922 -7.01254,3.21591 -7.33996,3.37041 -0.32742,0.15451 -0.59531,0.47291 -0.59531,0.70756 0,0.23466 3.46434,3.87672 7.69853,8.09347 8.07999,8.04671 8.30303,8.3395 7.16227,9.40228 -1.16154,1.08214 -1.39285,0.90673 -9.4414,-7.15941 -4.2109,-4.22011 -7.85093,-7.67292 -8.08896,-7.67292 -0.30925,0 -1.38957,2.08466 -3.78471,7.30324 -1.84356,4.01679 -3.51828,7.4696 -3.7216,7.67292 -0.55932,0.55933 -1.81048,0.46126 -2.20655,-0.17295 z m 4.8543,-12.64367 c 1.61081,-3.51849 3.04781,-6.51632 3.19333,-6.66184 0.14553,-0.14552 3.10821,-1.5723 6.58375,-3.17062 6.19433,-2.84863 6.99675,-3.27789 6.69374,-3.5809 -0.23406,-0.23407 -31.787674,-12.55369 -32.15989,-12.55633 -0.181901,-0.001 -0.330729,0.17057 -0.330729,0.38192 0,0.32669 11.997219,31.36937 12.357539,31.97501 0.34673,0.58279 0.96484,-0.49525 3.66226,-6.38724 z M 45.423289,154.02886 c -0.58554,-0.28239 -0.595313,-0.3674 -0.595313,-5.17844 0,-5.36388 0.06425,-5.58407 1.634747,-5.60272 1.327539,-0.0158 1.540253,0.51792 1.540253,3.86434 0,1.67266 0.123252,3.2715 0.273893,3.55297 0.247199,0.4619 0.580301,0.51178 3.417943,0.51178 1.729228,0 3.341504,0.0758 3.582834,0.16837 0.983952,0.37758 1.001632,2.15396 0.02791,2.80414 -0.464466,0.31013 -9.210502,0.20354 -9.882265,-0.12044 z m 16.867187,-0.20624 c -0.291042,-0.29104 -0.529167,-0.76729 -0.529167,-1.05833 0,-0.29105 0.238125,-0.7673 0.529167,-1.05834 0.4575,-0.4575 0.881944,-0.52916 3.133992,-0.52916 2.860903,0 3.480591,0.29082 3.480591,1.63347 0,1.23447 -0.702444,1.54153 -3.526563,1.54153 -2.206076,0 -2.631807,-0.073 -3.08802,-0.52917 z m 12.699999,0 c -0.63569,-0.63569 -0.671637,-1.26635 -0.11729,-2.05779 0.380241,-0.54287 0.620975,-0.58804 3.133995,-0.58804 2.987699,0 3.597878,0.27702 3.597878,1.63347 0,1.23447 -0.702445,1.54153 -3.526562,1.54153 -2.206077,0 -2.631808,-0.073 -3.088021,-0.52917 z m 12.58271,-0.0589 c -0.54828,-0.78278 -0.520478,-1.61292 0.07198,-2.14908 0.383101,-0.3467 1.041114,-0.43788 3.159998,-0.43788 2.465512,0 2.708558,0.0463 3.088021,0.58804 0.554347,0.79144 0.518401,1.4221 -0.11729,2.05779 -0.458208,0.45821 -0.881943,0.52917 -3.159998,0.52917 -2.418688,0 -2.664042,-0.0474 -3.042708,-0.58804 z M 45.423289,137.09553 c -0.562843,-0.27145 -0.595313,-0.44283 -0.595313,-3.14209 0,-2.65032 0.04215,-2.88451 0.588038,-3.26686 0.782782,-0.54828 1.612916,-0.52048 2.14908,0.072 0.670899,0.74133 0.634958,5.60578 -0.04597,6.22201 -0.548654,0.49653 -1.227463,0.53376 -2.095833,0.11496 z m 63.077981,-0.16093 c -0.3467,-0.3831 -0.43788,-1.04112 -0.43788,-3.16 0,-2.46551 0.0463,-2.70856 0.58804,-3.08802 0.79144,-0.55435 1.4221,-0.5184 2.05779,0.11729 0.45312,0.45312 0.52917,0.88194 0.52917,2.98384 0,1.79344 -0.11095,2.61307 -0.41188,3.0427 -0.50853,0.72603 -1.71361,0.78003 -2.32524,0.10419 z M 45.281739,124.34337 c -0.411187,-0.31191 -0.462524,-0.72885 -0.396875,-3.2232 0.07415,-2.81748 0.08746,-2.87169 0.803008,-3.27136 0.654314,-0.36546 0.800894,-0.36547 1.455208,-4e-5 0.711796,0.39753 0.729251,0.46583 0.803389,3.14352 0.06289,2.27143 -3.71e-4,2.82129 -0.371736,3.23166 -0.52101,0.57571 -1.61628,0.63275 -2.292994,0.11942 z m 63.219531,-0.10877 c -0.3467,-0.3831 -0.43788,-1.04111 -0.43788,-3.16 0,-2.46551 0.0463,-2.70856 0.58804,-3.08802 0.79144,-0.55435 1.4221,-0.5184 2.05779,0.11729 0.45751,0.4575 0.52917,0.88194 0.52917,3.13399 0,2.1875 -0.0775,2.67498 -0.48385,3.04271 -0.63902,0.5783 -1.70805,0.55649 -2.25327,-0.046 z M 45.290997,111.65014 c -0.38917,-0.29542 -0.463021,-0.79384 -0.463021,-3.12492 v -2.77344 l 0.901131,-0.48529 c 0.852101,-0.45889 0.938476,-0.46082 1.5875,-0.0356 0.665982,0.43636 0.686369,0.5315 0.686369,3.20285 0,2.15006 -0.09107,2.8442 -0.415774,3.1689 -0.503821,0.50382 -1.663451,0.52779 -2.296205,0.0475 z m 63.210273,-0.11554 c -0.34391,-0.38002 -0.43788,-1.03296 -0.43788,-3.04271 0,-2.2415 0.0685,-2.62732 0.5521,-3.11095 0.40545,-0.40545 0.73926,-0.50702 1.25677,-0.38239 1.16228,0.2799 1.36613,0.81557 1.36613,3.58988 0,2.13851 -0.0788,2.62553 -0.48385,2.99214 -0.63902,0.5783 -1.70805,0.55649 -2.25327,-0.046 z M 45.55558,98.85111 44.827976,98.40214 v -4.792502 c 0,-4.30688 0.04903,-4.836873 0.483855,-5.230385 0.412415,-0.373231 1.185278,-0.437882 5.23462,-0.437882 h 4.750766 l 0.468592,0.793263 c 0.404957,0.685537 0.421319,0.892139 0.12049,1.521354 l -0.348101,0.728092 -3.513426,0.132291 c -2.730312,0.102805 -3.569178,0.220752 -3.763559,0.529167 -0.137574,0.218281 -0.251957,1.840812 -0.254185,3.605624 -0.0028,2.245277 -0.103358,3.288198 -0.334781,3.473347 -0.65456,0.523678 -1.400826,0.568313 -2.116667,0.126601 z m 63.56614,0.281082 c -0.90067,-0.315886 -1.05833,-0.944641 -1.05833,-4.220623 0,-2.939833 -0.0485,-3.273355 -0.51177,-3.521305 -0.28148,-0.150641 -1.92454,-0.273893 -3.65125,-0.273893 -3.44153,0 -3.77975,-0.1295 -3.76607,-1.441979 0.0175,-1.675362 0.20032,-1.733021 5.49586,-1.733021 4.64421,0 4.79655,0.01724 5.19635,0.588038 0.54106,0.772461 0.61053,9.376867 0.0812,10.050301 -0.38691,0.492202 -1.22159,0.750411 -1.78594,0.552482 z M 62.173187,90.528333 c -0.226533,-0.323421 -0.411878,-0.773179 -0.411878,-0.999462 0,-0.226283 0.185345,-0.676041 0.411878,-0.999462 0.381504,-0.544673 0.61837,-0.588038 3.211977,-0.588038 3.070726,0 3.494412,0.197245 3.51148,1.634747 0.01544,1.300214 -0.540514,1.540253 -3.567356,1.540253 -2.535866,0 -2.775495,-0.04465 -3.156101,-0.588038 z m 12.726004,0.104184 c -0.54882,-0.60644 -0.557937,-1.343669 -0.02601,-2.103108 0.380672,-0.543482 0.620107,-0.588038 3.159998,-0.588038 2.539892,0 2.779327,0.04456 3.159998,0.588038 0.548281,0.782782 0.520478,1.612916 -0.07198,2.14908 -0.741336,0.670899 -5.60578,0.634958 -6.222013,-0.04597 z m 12.7,0 c -0.54882,-0.60644 -0.557938,-1.343669 -0.02601,-2.103108 0.380672,-0.543482 0.620107,-0.588038 3.159998,-0.588038 2.539891,0 2.779326,0.04456 3.159998,0.588038 0.54828,0.782782 0.520478,1.612916 -0.07198,2.14908 -0.741336,0.670899 -5.60578,0.634958 -6.222013,-0.04597 z"
         id="path832"
         inkscape:connector-curvature="0" />
      <path
         style="fill:#373737;stroke-width:0.26458332"
         d="m 108.4463,179.24522 c 0.0823,-0.13309 0.0242,-0.28379 -0.12909,-0.33487 -0.34907,-0.11636 -16.38619,-41.14861 -16.390354,-41.93602 -0.004,-0.75436 0.669959,-1.40796 1.451798,-1.40796 0.55998,0 38.158566,14.52512 41.209216,15.91998 1.10716,0.50623 1.25677,0.67271 1.25677,1.39841 0,1.04275 0.14755,0.95704 -8.22033,4.7748 -3.70074,1.68842 -6.90593,3.2452 -7.12264,3.4595 -0.34802,0.34416 0.52439,1.30652 7.47448,8.24514 5.72745,5.71799 7.86849,8.02 7.86849,8.46008 0,0.86685 -0.90774,1.66292 -1.89618,1.66292 -0.46082,0 -0.78095,-0.0569 -0.7114,-0.12645 0.0695,-0.0695 -3.36264,-3.60818 -7.62709,-7.86363 -6.78308,-6.76878 -7.80107,-7.68848 -8.13333,-7.34803 -0.20888,0.21403 -1.76841,3.42525 -3.46562,7.13603 -3.86596,8.45256 -3.71847,8.20208 -4.82966,8.20208 -0.48654,0 -0.81732,-0.10889 -0.73506,-0.24198 z m 4.48373,-12.65646 c 1.56984,-3.45612 3.11136,-6.53381 3.42558,-6.83932 0.31423,-0.3055 3.40402,-1.84311 6.86621,-3.41689 4.61195,-2.09643 6.27393,-2.9702 6.21653,-3.26827 -0.10156,-0.52739 -32.210498,-13.1182 -32.560725,-12.76798 -0.37443,0.37443 12.263945,32.57632 12.785325,32.57632 0.28232,0 1.31507,-1.98639 3.26708,-6.28386 z m -67.37445,-12.70217 -0.727604,-0.45112 v -4.79104 -4.79104 l 0.673908,-0.30705 c 2.018381,-0.91964 2.466007,-0.20764 2.558926,4.07022 l 0.07446,3.42793 3.466436,0.1323 c 3.793182,0.14476 4.338772,0.34657 4.338772,1.60489 0,1.376 -0.675536,1.57094 -5.416684,1.56307 -3.526709,-0.006 -4.363098,-0.083 -4.968212,-0.45816 z m 17.05835,0.0533 c -0.726029,-0.50853 -0.780023,-1.71361 -0.104183,-2.32524 0.376195,-0.34045 1.023771,-0.43788 2.910416,-0.43788 2.073785,0 2.503494,0.0769 2.955729,0.52916 0.291042,0.29104 0.529167,0.76729 0.529167,1.05834 0,0.29104 -0.238125,0.76729 -0.529167,1.05833 -0.448784,0.44878 -0.881944,0.52917 -2.851545,0.52917 -1.673714,0 -2.486623,-0.11505 -2.910417,-0.41188 z m 12.391113,-0.29116 c -0.600318,-0.76318 -0.526465,-1.57409 0.195009,-2.14123 0.268123,-0.21077 1.3141,-0.33073 2.883701,-0.33073 2.110195,0 2.538767,0.0758 2.992139,0.52916 0.291041,0.29104 0.529166,0.76729 0.529166,1.05834 0,0.29104 -0.238125,0.76729 -0.529166,1.05833 -0.454327,0.45433 -0.881944,0.52917 -3.023505,0.52917 -2.384825,0 -2.518619,-0.0309 -3.047344,-0.70304 z m 12.894844,0.38113 c -0.751575,-0.57344 -0.862396,-1.67094 -0.232341,-2.301 0.480872,-0.48087 0.867825,-0.55157 2.999491,-0.54804 2.642211,0.004 2.859733,0.0705 3.36082,1.02117 0.282797,0.53655 0.255542,0.72984 -0.186537,1.32292 -0.486249,0.65234 -0.66906,0.69912 -3.007061,0.76954 -1.720456,0.0518 -2.626796,-0.0299 -2.934372,-0.26459 z M 45.55558,136.95325 c -0.715581,-0.44366 -0.727604,-0.49506 -0.727604,-3.11091 0,-2.65777 5.85e-4,-2.66014 0.771599,-3.11559 0.871084,-0.51456 1.942607,-0.28666 2.235024,0.47537 0.09261,0.24133 0.168377,1.5006 0.168377,2.79839 0,2.00683 -0.07911,2.43872 -0.529166,2.88878 -0.640586,0.64058 -0.970465,0.65158 -1.91823,0.064 z m 63.03698,-0.064 c -0.45337,-0.45338 -0.52917,-0.88195 -0.52917,-2.99214 0,-2.60289 0.20355,-3.16848 1.25237,-3.47987 0.43408,-0.12888 0.77429,0.008 1.28186,0.51552 0.66393,0.66393 0.68739,0.78961 0.59972,3.21304 -0.077,2.12731 -0.17163,2.58081 -0.60483,2.89734 -0.7119,0.52017 -1.37707,0.46899 -1.99995,-0.15389 z m -62.968416,-12.5648 c -0.179828,-0.21668 -0.432531,-0.32871 -0.561563,-0.24897 -0.130833,0.0809 -0.234605,-1.1071 -0.234605,-2.68572 0,-3.16069 0.1834,-3.52634 1.776629,-3.5421 1.169364,-0.0116 1.398371,0.5475 1.398371,3.41378 0,2.04586 -0.07783,2.47647 -0.529166,2.92781 -0.626835,0.62683 -1.395046,0.68298 -1.849666,0.1352 z m 62.968416,-0.1352 c -0.45367,-0.45367 -0.52917,-0.88195 -0.52917,-3.0017 0,-2.73046 0.30622,-3.3483 1.65948,-3.3483 1.14423,0 1.51552,0.8571 1.51552,3.49845 0,1.9696 -0.0804,2.40276 -0.52917,2.85155 -0.29104,0.29104 -0.76729,0.52916 -1.05833,0.52916 -0.29104,0 -0.76729,-0.23812 -1.05833,-0.52916 z M 45.539831,111.63418 c -0.211351,-0.21135 -0.457981,-0.31057 -0.548065,-0.22049 -0.09008,0.0901 -0.16379,-1.12285 -0.16379,-2.69541 0,-3.13512 0.191524,-3.55344 1.634747,-3.57058 1.286668,-0.0153 1.540253,0.55027 1.540253,3.43507 0,2.39916 -0.0479,2.64548 -0.588038,3.02381 -0.735365,0.51507 -1.378177,0.52453 -1.875107,0.0276 z m 63.052729,-0.14489 c -0.45367,-0.45367 -0.52917,-0.88195 -0.52917,-3.0017 0,-2.73046 0.30622,-3.3483 1.65948,-3.3483 1.14423,0 1.51552,0.8571 1.51552,3.49845 0,1.9696 -0.0804,2.40276 -0.52917,2.85155 -0.29104,0.29104 -0.76729,0.52916 -1.05833,0.52916 -0.29104,0 -0.76729,-0.23812 -1.05833,-0.52916 z M 45.290997,98.685559 c -0.410189,-0.311378 -0.463021,-0.884017 -0.463021,-5.018669 0,-6.158651 -0.433132,-5.725519 5.725519,-5.725519 5.105343,0 5.359737,0.07627 5.378566,1.612639 0.01612,1.315556 -0.635768,1.562361 -4.126689,1.562361 -2.110752,0 -3.273314,0.105918 -3.484896,0.3175 -0.212088,0.212088 -0.3175,1.38436 -0.3175,3.530868 0,2.77704 -0.0657,3.272826 -0.483854,3.65125 -0.578407,0.523451 -1.588657,0.554995 -2.228125,0.06957 z m 63.210273,-0.115542 c -0.35854,-0.396189 -0.43788,-1.086154 -0.43788,-3.808151 0,-2.787248 -0.0676,-3.350242 -0.41851,-3.484896 -0.23019,-0.08833 -1.81908,-0.160599 -3.53087,-0.160599 -2.67918,0 -3.1733,-0.06734 -3.55024,-0.483854 -0.51646,-0.570685 -0.55054,-1.096078 -0.13082,-2.017238 L 100.74,87.941371 h 4.79527 4.79528 l 0.45392,0.768428 c 0.63993,1.083314 0.67342,8.854618 0.042,9.756034 -0.50853,0.726029 -1.71361,0.780024 -2.32524,0.104184 z M 62.488913,90.830595 c -0.554931,-0.323217 -0.610499,-1.746734 -0.09471,-2.426203 0.292379,-0.385162 0.784353,-0.463021 2.925737,-0.463021 2.346058,0 2.618277,0.05277 3.070883,0.595313 0.611113,0.732545 0.636621,1.228879 0.102356,1.991649 -0.378218,0.539981 -0.621474,0.587381 -2.976563,0.579993 -1.410576,-0.0044 -2.773043,-0.129404 -3.027705,-0.277731 z m 12.501562,-0.24339 c -0.646073,-0.646074 -0.656021,-0.894233 -0.07525,-1.877406 0.453224,-0.767248 0.45801,-0.768428 3.117953,-0.768428 2.659944,0 2.66473,0.0012 3.117954,0.768428 0.580776,0.983173 0.570827,1.231332 -0.07525,1.877406 -0.454898,0.454897 -0.881944,0.529166 -3.042709,0.529166 -2.160764,0 -2.58781,-0.07427 -3.042708,-0.529166 z m 12.7,0 c -0.646073,-0.646074 -0.656021,-0.894233 -0.07525,-1.877406 0.453223,-0.767248 0.45801,-0.768428 3.117953,-0.768428 2.662457,0 2.664301,4.58e-4 3.119826,0.771599 0.514565,0.871084 0.286663,1.942607 -0.475363,2.235024 -0.241332,0.09261 -1.500608,0.168377 -2.798395,0.168377 -2.006833,0 -2.438723,-0.07911 -2.888776,-0.529166 z"
         id="path830"
         inkscape:connector-curvature="0" />
      <path
         style="fill:#151515;stroke-width:0.26458332"
         d="m 108.67664,179.31493 c 0.0947,-0.0948 -0.002,-0.30312 -0.21396,-0.46302 -0.59023,-0.44431 -16.584447,-41.6668 -16.396436,-42.25917 0.214225,-0.67497 1.073404,-1.09523 1.785786,-0.87352 1.097463,0.34157 40.53537,15.77343 41.06657,16.06915 0.29104,0.16202 0.61846,0.26929 0.7276,0.23838 0.10914,-0.0309 0.19844,0.3605 0.19844,0.86983 0,0.50932 -0.0893,0.90457 -0.19844,0.87833 -0.10914,-0.0263 -0.55562,0.164 -0.99219,0.42276 -0.43656,0.25875 -3.82858,1.85974 -7.53783,3.55774 -4.9309,2.25726 -6.76978,3.22077 -6.83969,3.58377 -0.069,0.35835 2.02366,2.61671 7.52116,8.11667 4.18923,4.1911 7.71358,7.56035 7.83188,7.48723 0.11831,-0.0731 0.21511,0.29783 0.21511,0.82433 0,0.5265 -0.10557,0.89202 -0.2346,0.81228 -0.29135,-0.18006 -0.88432,0.49415 -0.64505,0.73342 0.0958,0.0958 -0.22278,0.17409 -0.70785,0.17409 -0.48507,0 -0.82504,-0.0569 -0.75549,-0.12645 0.0695,-0.0695 -3.34802,-3.59359 -7.59459,-7.8312 -5.53848,-5.5268 -7.86038,-7.67792 -8.21398,-7.60982 -0.3584,0.069 -1.33558,1.93564 -3.58023,6.83902 -1.698,3.70924 -3.29899,7.10126 -3.55775,7.53783 -0.25876,0.43656 -0.449,0.88304 -0.42276,0.99218 0.0263,0.10914 -0.32931,0.19844 -0.79013,0.19844 -0.46081,0 -0.76032,-0.0775 -0.66557,-0.17227 z m 4.40863,-12.72617 c 1.63375,-3.60164 3.05788,-6.64224 3.16472,-6.75689 0.10685,-0.11465 3.16037,-1.57143 6.7856,-3.23729 3.63444,-1.67008 6.62818,-3.20059 6.67345,-3.41171 0.0452,-0.21058 -0.13343,-0.49679 -0.39688,-0.63601 -1.06741,-0.5641 -31.819003,-12.48257 -32.207049,-12.48257 -0.230343,0 -0.421563,0.20836 -0.424936,0.46302 -0.0034,0.25466 2.813124,7.69606 6.258885,16.53645 4.91193,12.602 6.36336,16.07344 6.72038,16.07344 0.3385,0 1.21778,-1.68075 3.42583,-6.54844 z M 45.539831,153.70293 c -0.211351,-0.21135 -0.457981,-0.31057 -0.548065,-0.22049 -0.09008,0.0901 -0.16379,-2.05871 -0.16379,-4.7751 0,-2.71639 0.0893,-4.91999 0.198438,-4.89688 0.10914,0.0231 0.398138,-0.0459 0.642216,-0.15322 0.759727,-0.33421 1.645214,-0.0497 1.993094,0.64038 0.210434,0.41743 0.33489,1.79794 0.337352,3.742 0.0032,2.56259 0.07427,3.10755 0.422415,3.24115 0.230183,0.0883 1.834782,0.1606 3.565775,0.1606 3.065115,0 3.158573,0.0172 3.580665,0.66146 0.401483,0.61274 0.401483,0.71017 0,1.32291 l -0.433404,0.66146 h -4.60521 c -3.673635,0 -4.682944,-0.0777 -4.989486,-0.38427 z m 16.901835,-0.0315 c -0.483349,-0.48335 -0.526048,-1.00047 -0.141881,-1.71829 0.24348,-0.45495 0.575451,-0.51177 2.989791,-0.51177 2.930649,0 3.350899,0.16591 3.350899,1.32292 0,1.1465 -0.427936,1.32291 -3.209017,1.32291 -1.987239,0 -2.668799,-0.0948 -2.989792,-0.41577 z m 12.7,0 c -0.493461,-0.49346 -0.543502,-1.46733 -0.09827,-1.91256 0.205031,-0.20503 1.264121,-0.3175 2.989791,-0.3175 2.884662,0 3.307292,0.16905 3.307292,1.32292 0,1.1465 -0.427937,1.32291 -3.209017,1.32291 -1.987238,0 -2.668799,-0.0948 -2.989792,-0.41577 z m 12.601725,0.0983 c -0.174625,-0.17462 -0.3175,-0.62706 -0.3175,-1.00541 0,-1.15701 0.420251,-1.32292 3.350901,-1.32292 2.414338,0 2.746308,0.0568 2.989791,0.51177 0.384167,0.71782 0.341466,1.23494 -0.141883,1.71829 -0.524356,0.52436 -5.374187,0.60539 -5.881309,0.0983 z M 45.554196,136.78396 c -0.219252,-0.21925 -0.472346,-0.32494 -0.56243,-0.23485 -0.09008,0.0901 -0.16379,-1.12606 -0.16379,-2.70253 0,-1.57648 0.07371,-2.79262 0.16379,-2.70253 0.09008,0.0901 0.343178,-0.0156 0.56243,-0.23485 0.584767,-0.58477 1.714672,-0.35759 2.10802,0.42384 0.183128,0.3638 0.332959,1.49489 0.332959,2.51354 0,1.01864 -0.149831,2.14974 -0.332959,2.51354 -0.393348,0.78143 -1.523253,1.0086 -2.10802,0.42384 z m 63.091274,0.0524 c -0.20503,-0.20503 -0.3175,-1.26412 -0.3175,-2.98979 0,-2.83007 0.17671,-3.30729 1.22465,-3.30729 1.15982,0 1.42119,0.6263 1.42119,3.40556 0,2.78108 -0.17642,3.20902 -1.32292,3.20902 -0.37835,0 -0.83079,-0.14288 -1.00542,-0.3175 z M 45.459891,124.07541 c -0.08701,-0.22674 -0.264783,-0.34638 -0.395056,-0.26586 -0.133799,0.0827 -0.236859,-1.08838 -0.236859,-2.69145 0,-1.56082 0.07964,-2.75821 0.176966,-2.66087 0.09733,0.0973 0.390191,-0.016 0.650797,-0.25185 0.650309,-0.58852 1.764361,-0.27722 2.092012,0.58456 0.363619,0.95639 0.308699,4.08696 -0.08544,4.87018 -0.402267,0.79938 -1.943513,1.09 -2.202422,0.41529 z m 63.185579,0.061 c -0.2057,-0.2057 -0.3175,-1.27381 -0.3175,-3.0334 0,-2.41434 0.0568,-2.74631 0.51178,-2.98979 1.58922,-0.85053 2.13406,-0.051 2.13406,3.13167 0,2.78108 -0.17642,3.20902 -1.32292,3.20902 -0.37835,0 -0.83079,-0.14287 -1.00542,-0.3175 z m -63.185579,-12.761 c -0.08701,-0.22674 -0.264783,-0.34638 -0.395056,-0.26586 -0.133799,0.0827 -0.236859,-1.08838 -0.236859,-2.69145 0,-1.56081 0.07964,-2.75821 0.176966,-2.66087 0.09733,0.0973 0.390191,-0.016 0.650797,-0.25185 0.650309,-0.58852 1.764361,-0.27722 2.092012,0.58456 0.363619,0.95639 0.308699,4.08696 -0.08544,4.87018 -0.402267,0.79938 -1.943513,1.09 -2.202422,0.41529 z m 63.185579,0.061 c -0.50712,-0.50712 -0.42608,-5.35695 0.0983,-5.88131 0.55242,-0.55242 1.25477,-0.52574 1.79217,0.0681 0.34258,0.37854 0.43789,1.02929 0.43789,2.98979 0,1.59629 -0.11526,2.62119 -0.3175,2.82344 -0.40929,0.40929 -1.60155,0.40929 -2.01084,0 z M 45.715354,98.666337 c -0.304305,-0.213143 -0.628454,-0.312362 -0.72033,-0.220486 -0.09188,0.09188 -0.167048,-2.062479 -0.167048,-4.787456 0,-2.813551 0.101378,-4.891849 0.234605,-4.80951 0.291345,0.180062 0.884315,-0.494149 0.645044,-0.73342 -0.09575,-0.09575 2.048407,-0.174094 4.764795,-0.174094 2.716389,0 4.913594,0.0893 4.882678,0.198438 -0.03092,0.10914 0.09474,0.470825 0.279241,0.803744 0.439601,0.793237 0.15867,1.612221 -0.659769,1.923391 -0.360823,0.137185 -2.067817,0.249427 -3.793318,0.249427 h -3.137276 l -0.08665,3.593769 c -0.07702,3.194389 -0.143721,3.635441 -0.600236,3.96875 -0.64859,0.473546 -0.951038,0.471234 -1.64174,-0.01255 z m 63.028396,-0.02824 c -0.32789,-0.327892 -0.41654,-1.040931 -0.41939,-3.373437 -0.005,-4.449029 0.32121,-4.092796 -3.846,-4.194411 -2.2455,-0.05476 -3.64684,-0.199506 -3.84391,-0.397055 -0.45031,-0.451419 -0.37997,-1.713442 0.11571,-2.075892 0.23421,-0.171258 0.34832,-0.388902 0.25356,-0.483654 -0.0948,-0.09475 2.01054,-0.172277 4.67842,-0.172277 2.66788,0 4.77699,0.07371 4.68691,0.16379 -0.0901,0.09008 0.009,0.336714 0.22048,0.548065 0.30632,0.306317 0.38428,1.311464 0.38428,4.954578 0,4.091616 -0.0507,4.616166 -0.48386,5.008185 -0.60766,0.549927 -1.21075,0.557563 -1.7462,0.02211 z M 62.819642,90.775119 c -0.793188,-0.399859 -0.995725,-1.378275 -0.417559,-2.017142 0.230293,-0.25447 0.339079,-0.542308 0.241748,-0.63964 -0.09733,-0.09733 1.10006,-0.176966 2.660871,-0.176966 1.603071,0 2.774142,0.10306 2.69145,0.236859 -0.08051,0.130273 0.03152,0.30513 0.248968,0.388571 0.622819,0.238999 0.495101,1.65595 -0.192683,2.137692 -0.730372,0.511573 -4.263508,0.559259 -5.232795,0.07063 z m 12.7,5.02e-4 c -0.781426,-0.393348 -1.008605,-1.523253 -0.423839,-2.10802 0.219252,-0.219252 0.324935,-0.472345 0.23485,-0.56243 -0.09008,-0.09009 1.126056,-0.1638 2.70253,-0.1638 1.576475,0 2.792614,0.07371 2.702531,0.16379 -0.09009,0.09008 0.01558,0.343178 0.23485,0.56243 0.584766,0.584767 0.357587,1.714672 -0.423839,2.10802 -0.363802,0.183128 -1.494896,0.332959 -2.513542,0.332959 -1.018645,0 -2.149739,-0.149831 -2.513541,-0.332959 z m 12.699999,0 c -0.781425,-0.393348 -1.008604,-1.523253 -0.423838,-2.10802 0.219252,-0.219252 0.324935,-0.472345 0.234849,-0.56243 -0.09008,-0.09009 1.126056,-0.1638 2.702531,-0.1638 1.576475,0 2.792613,0.07371 2.702531,0.16379 -0.09009,0.09008 0.01558,0.343178 0.234849,0.56243 0.584766,0.584767 0.357587,1.714672 -0.423838,2.10802 -0.363803,0.183128 -1.494896,0.332959 -2.513542,0.332959 -1.018646,0 -2.14974,-0.149831 -2.513542,-0.332959 z"
         id="path828"
         inkscape:connector-curvature="0" />
    </g>
  </g>
</svg>
